<svg width="9678" height="2433" viewBox="0 0 9678 2433" fill="none" xmlns="http://www.w3.org/2000/svg">
<path d="M2523 1882.9L2690.44 1692.82C2711.61 1744.92 2745.61 1786.09 2792.44 1816.32C2839.27 1845.91 2891.88 1860.71 2950.26 1860.71C3020.83 1860.71 3076.64 1843.98 3117.7 1810.53C3158.76 1777.08 3179.28 1732.06 3179.28 1675.45C3179.28 1608.55 3110.96 1541.97 2974.32 1475.72C2930.05 1454.49 2895.09 1437.12 2869.43 1423.61C2746.25 1359.29 2660.93 1296.57 2613.46 1235.46C2565.98 1173.71 2542.25 1100.37 2542.25 1015.46C2542.25 899.034 2588.12 803.51 2679.85 728.892C2772.23 653.631 2891.88 616 3038.79 616C3124.11 616 3197.57 631.117 3259.15 661.35C3321.38 690.94 3376.23 737.576 3423.71 801.259L3245.68 972.044C3224.51 930.876 3196.28 900.321 3161 880.38C3126.36 859.795 3084.34 849.503 3034.94 849.503C2975.28 849.503 2927.16 864.62 2890.6 894.853C2854.03 924.443 2835.75 963.039 2835.75 1010.64C2835.75 1085.26 2908.24 1153.44 3053.22 1215.2C3082.09 1227.42 3104.23 1237.07 3119.62 1244.14C3238.95 1298.82 3327.16 1360.57 3384.25 1429.4C3441.99 1498.23 3470.86 1576.71 3470.86 1664.83C3470.86 1797.35 3425.63 1903.16 3335.18 1982.28C3245.36 2060.76 3124.43 2100 2972.39 2100C2864.61 2100 2772.23 2081.35 2695.25 2044.04C2618.27 2006.73 2560.85 1953.02 2523 1882.9Z" fill="black"/>
<path d="M4165.48 2062.37V1417.82L3688.18 649.771H4041.35L4250.16 1036.69C4260.43 1055.99 4271.01 1080.43 4281.92 1110.02C4292.82 1139.61 4304.05 1173.71 4315.6 1212.3C4324.58 1179.5 4334.52 1148.62 4345.43 1119.67C4356.98 1090.73 4369.81 1062.42 4383.92 1034.76L4590.82 649.771H4942.05L4466.68 1417.82V2062.37H4165.48Z" fill="black"/>
<path d="M6599.93 1358.96C6599.93 1459.96 6581.01 1555.48 6543.16 1645.54C6505.95 1735.59 6452.06 1814.71 6381.49 1882.9C6308.36 1953.02 6225.92 2006.73 6134.18 2044.04C6042.44 2081.35 5947.5 2100 5849.34 2100C5763.38 2100 5679.02 2085.53 5596.26 2056.58C5514.14 2026.99 5438.76 1984.86 5370.12 1930.18C5281.59 1859.42 5213.59 1774.83 5166.11 1676.41C5119.28 1577.99 5095.87 1472.18 5095.87 1358.96C5095.87 1257.33 5114.47 1162.13 5151.68 1073.36C5188.89 983.945 5243.42 904.502 5315.27 835.03C5385.84 766.201 5467.63 712.811 5560.65 674.858C5654.32 636.906 5750.55 617.93 5849.34 617.93C5947.5 617.93 6042.76 636.906 6135.14 674.858C6228.16 712.811 6310.28 766.201 6381.49 835.03C6452.7 904.502 6506.91 983.945 6544.12 1073.36C6581.33 1162.77 6599.93 1257.97 6599.93 1358.96ZM5849.34 1830.8C5977.01 1830.8 6082.22 1786.09 6164.97 1696.68C6248.37 1606.62 6290.07 1494.05 6290.07 1358.96C6290.07 1225.17 6248.05 1112.6 6164.01 1021.25C6079.97 929.911 5975.08 884.239 5849.34 884.239C5721.68 884.239 5615.82 929.911 5531.78 1021.25C5447.74 1111.95 5405.72 1224.52 5405.72 1358.96C5405.72 1495.34 5447.1 1608.23 5529.86 1697.64C5612.62 1786.41 5719.11 1830.8 5849.34 1830.8Z" fill="black"/>
<path d="M7707.38 1524.93L7549.56 1068.53C7545.07 1055.02 7539.3 1031.87 7532.24 999.061C7525.18 966.255 7517.8 926.051 7510.11 878.45C7501.77 924.121 7493.75 965.29 7486.05 1001.96C7478.35 1037.98 7472.58 1062.1 7468.73 1074.32L7316.68 1524.93H7707.38ZM6810.52 2062.37L7346.52 649.771H7691.02L8234.71 2062.37H7892.14L7777.62 1762.29H7232L7133.85 2062.37H6810.52Z" fill="black"/>
<path d="M8540.57 2062.37V649.771H8841.77V1289.49L9311.37 649.771H9659.72L9155.47 1293.35L9678 2062.37H9315.21L8841.77 1323.26V2062.37H8540.57Z" fill="black"/>
<mask id="mask0_1_12937" style="mask-type:alpha" maskUnits="userSpaceOnUse" x="0" y="0" width="1470" height="2433">
<path d="M0 1698.18C0 1292.36 734.81 0 734.81 0C734.81 0 1469.62 1292.36 1469.62 1698.18C1469.62 2104.01 1140.64 2433 734.81 2433C328.975 2433 0 2104 0 1698.18Z" fill="#F1904C"/>
</mask>
<g mask="url(#mask0_1_12937)">
<path d="M0.022316 1698.18C0.022316 1292.35 734.833 0 734.833 0C734.833 0 1388.14 951.14 1388.14 1356.96L146.843 2135.55C-258.993 2135.55 0.022316 2103.99 0.022316 1698.18Z" fill="#FF7616"/>
<path d="M-67.9909 2379.48L1846.21 1183.35L2595.59 2382.61L681.388 3578.74L-67.9909 2379.48Z" fill="black"/>
</g>
</svg>
