<svg width="16" height="20" viewBox="0 0 16 20" fill="none" xmlns="http://www.w3.org/2000/svg">
<path d="M8.00003 9.78131C10.2237 9.78131 12.0265 7.59171 12.0265 4.89069C12.0265 2.1896 11.4346 0 8.00003 0C4.56545 0 3.97345 2.1896 3.97345 4.89069C3.97345 7.59171 5.77625 9.78131 8.00003 9.78131Z" fill="#B7BACF"/>
<path d="M0.394775 17.2488C0.393401 17.2024 0.394088 17.0841 0.394775 17.2488V17.2488Z" fill="#B7BACF"/>
<path d="M15.6049 17.3774C15.6056 17.0646 15.607 17.3323 15.6049 17.3774V17.3774Z" fill="#B7BACF"/>
<path d="M15.5963 17.0513C15.5217 12.346 14.9072 11.0053 10.2047 10.1566C10.2047 10.1566 9.54277 11.0001 7.99991 11.0001C6.45706 11.0001 5.795 10.1566 5.795 10.1566C1.14386 10.996 0.491971 12.3169 0.406257 16.8984C0.399229 17.2725 0.395971 17.2922 0.394714 17.2488C0.395 17.3301 0.395343 17.4807 0.395343 17.7431C0.395343 17.7431 1.51489 20 7.99991 20C14.4848 20 15.6045 17.7431 15.6045 17.7431C15.6045 17.5745 15.6046 17.4572 15.6048 17.3775C15.6035 17.4043 15.601 17.3523 15.5963 17.0513Z" fill="#B7BACF"/>
</svg>
