<svg width="12" height="12" viewBox="0 0 12 12" fill="none" xmlns="http://www.w3.org/2000/svg">
<path d="M1.75581 9.33241C1.94995 8.5228 2.67854 7.92104 3.54768 7.92104C4.56533 7.92104 5.39029 8.74601 5.39029 9.76365C5.39029 10.7813 4.56533 11.6063 3.54768 11.6063C2.67854 11.6063 1.94995 11.0045 1.75581 10.1949H0.724951C0.486778 10.1949 0.293701 10.0018 0.293701 9.76365C0.293701 9.52548 0.486778 9.33241 0.724951 9.33241H1.75581ZM5.51944 5.56877C5.71358 4.75916 6.44218 4.1574 7.31132 4.1574C8.32896 4.1574 9.15393 4.98237 9.15393 6.00002C9.15393 7.01767 8.32896 7.84263 7.31132 7.84263C6.44218 7.84263 5.71358 7.24088 5.51944 6.43127H0.724951C0.486778 6.43127 0.293701 6.23819 0.293701 6.00002C0.293701 5.76185 0.486778 5.56877 0.724951 5.56877H5.51944ZM1.75581 1.80513C1.94995 0.995524 2.67854 0.393768 3.54768 0.393768C4.56533 0.393768 5.39029 1.21873 5.39029 2.23638C5.39029 3.25403 4.56533 4.079 3.54768 4.079C2.67854 4.079 1.94995 3.47724 1.75581 2.66763H0.724951C0.486778 2.66763 0.293701 2.47456 0.293701 2.23638C0.293701 1.99821 0.486778 1.80513 0.724951 1.80513H1.75581ZM6.84086 2.66763C6.60269 2.66763 6.40961 2.47456 6.40961 2.23638C6.40961 1.99821 6.60269 1.80513 6.84086 1.80513H11.075C11.3131 1.80513 11.5062 1.99821 11.5062 2.23638C11.5062 2.47456 11.3131 2.66763 11.075 2.66763H6.84086ZM10.6045 6.43127C10.3663 6.43127 10.1732 6.23819 10.1732 6.00002C10.1732 5.76185 10.3663 5.56877 10.6045 5.56877H11.075C11.3131 5.56877 11.5062 5.76185 11.5062 6.00002C11.5062 6.23819 11.3131 6.43127 11.075 6.43127H10.6045ZM6.84086 10.1949C6.60269 10.1949 6.40961 10.0018 6.40961 9.76365C6.40961 9.52548 6.60269 9.33241 6.84086 9.33241H11.075C11.3131 9.33241 11.5062 9.52548 11.5062 9.76365C11.5062 10.0018 11.3131 10.1949 11.075 10.1949H6.84086ZM3.54768 3.2165C4.08898 3.2165 4.52779 2.77768 4.52779 2.23638C4.52779 1.69508 4.08898 1.25627 3.54768 1.25627C3.00638 1.25627 2.56756 1.69508 2.56756 2.23638C2.56756 2.77768 3.00638 3.2165 3.54768 3.2165ZM7.31132 6.98013C7.85262 6.98013 8.29143 6.54132 8.29143 6.00002C8.29143 5.45872 7.85262 5.01991 7.31132 5.01991C6.77001 5.01991 6.3312 5.45872 6.3312 6.00002C6.3312 6.54132 6.77001 6.98013 7.31132 6.98013ZM3.54768 10.7438C4.08898 10.7438 4.52779 10.305 4.52779 9.76365C4.52779 9.22235 4.08898 8.78354 3.54768 8.78354C3.00638 8.78354 2.56756 9.22235 2.56756 9.76365C2.56756 10.305 3.00638 10.7438 3.54768 10.7438Z" fill="#0052B4"/>
</svg>
