<svg width="28" height="30" viewBox="0 0 28 30" fill="none" xmlns="http://www.w3.org/2000/svg">
<path d="M27.1462 28.9888H26.3035V2.52809C26.3035 2.24877 26.0771 2.02248 25.7979 2.02248H16.3597C16.0804 2.02248 15.8541 2.24877 15.8541 2.52809V4.71908H14.8428V2.52809C14.8428 2.24877 14.6164 2.02248 14.3372 2.02248H12.1462V0.505605C12.1462 0.226289 11.9198 0 11.6406 0C11.3614 0 11.135 0.226289 11.135 0.505605V2.02248H8.94398C8.66472 2.02248 8.43837 2.24877 8.43837 2.52809V4.71908H6.9215C6.64224 4.71908 6.41589 4.94537 6.41589 5.22469V9.43816H2.20241C1.92315 9.43816 1.69681 9.66445 1.69681 9.94377V28.9887H0.853994C0.574736 28.9887 0.348389 29.215 0.348389 29.4943C0.348389 29.7737 0.574795 30 0.853994 30H27.1462C27.4254 30 27.6518 29.7737 27.6518 29.4944C27.6518 29.2151 27.4254 28.9888 27.1462 28.9888ZM9.44952 3.03369H13.8315V4.71908H9.44952V3.03369ZM7.76413 28.9888H7.42704V28.1461C7.42704 27.8668 7.20064 27.6405 6.92144 27.6405C6.64224 27.6405 6.41583 27.8668 6.41583 28.1461V28.9888H6.07874V27.3034H7.76413V28.9888ZM11.1349 16.0112V16.881V28.9888H8.77534V26.7978C8.77534 26.5185 8.54894 26.2922 8.26974 26.2922H5.57314C5.29388 26.2922 5.06753 26.5185 5.06753 26.7978V28.9888H2.70796V10.4494H11.1349V16.0112ZM11.6405 9.43822H7.42704V5.73035H15.854V15.5056H12.1462V13.8202H13.6631C13.9423 13.8202 14.1687 13.5939 14.1687 13.3146C14.1687 13.0353 13.9423 12.809 13.6631 12.809H12.1462V11.1236H13.6631C13.9423 11.1236 14.1687 10.8973 14.1687 10.618C14.1687 10.3387 13.9423 10.1124 13.6631 10.1124H12.1462V9.94389C12.1462 9.66451 11.9198 9.43822 11.6405 9.43822ZM20.5731 28.9888H12.1462V16.881V16.5169H20.5731V28.9888ZM25.2922 28.9888H21.5844V16.0112V15.337C21.5844 15.0577 21.3579 14.8314 21.0787 14.8314C20.7995 14.8314 20.5731 15.0577 20.5731 15.337V15.5055H19.5619V15.337C19.5619 15.0577 19.3355 14.8314 19.0563 14.8314C18.7771 14.8314 18.5507 15.0577 18.5507 15.337V15.5055H16.8653V5.22475V3.03369H25.2923V28.9888H25.2922Z" fill="#FF7616"/>
<path d="M14.3374 27.9774C14.6166 27.9774 14.843 27.751 14.843 27.4718V18.0337C14.843 17.7544 14.6166 17.5281 14.3374 17.5281C14.0582 17.5281 13.8318 17.7544 13.8318 18.0337V27.4719C13.8318 27.7511 14.0581 27.9774 14.3374 27.9774Z" fill="#FF7616"/>
<path d="M16.3598 27.9774C16.6391 27.9774 16.8654 27.751 16.8654 27.4718V18.0337C16.8654 17.7544 16.639 17.5281 16.3598 17.5281C16.0806 17.5281 15.8542 17.7544 15.8542 18.0337V27.4719C15.8541 27.7511 16.0805 27.9774 16.3598 27.9774Z" fill="#FF7616"/>
<path d="M18.5962 27.904C18.8754 27.904 19.1018 27.6776 19.1018 27.3984V17.9602C19.1018 17.6809 18.8754 17.4546 18.5962 17.4546C18.317 17.4546 18.0906 17.6809 18.0906 17.9602V27.3984C18.0906 27.6776 18.317 27.904 18.5962 27.904Z" fill="#FF7616"/>
<path d="M19.0561 6.40445C19.3354 6.40445 19.5617 6.17816 19.5617 5.89884V5.22472C19.5617 4.94541 19.3353 4.71912 19.0561 4.71912C18.7769 4.71912 18.5505 4.94541 18.5505 5.22472V5.8989C18.5505 6.17816 18.7769 6.40445 19.0561 6.40445Z" fill="#FF7616"/>
<path d="M21.0786 6.40445C21.3578 6.40445 21.5842 6.17816 21.5842 5.89884V5.22472C21.5842 4.94541 21.3578 4.71912 21.0786 4.71912C20.7994 4.71912 20.573 4.94541 20.573 5.22472V5.8989C20.573 6.17816 20.7993 6.40445 21.0786 6.40445Z" fill="#FF7616"/>
<path d="M23.1014 6.40445C23.3807 6.40445 23.607 6.17816 23.607 5.89884V5.22472C23.607 4.94541 23.3806 4.71912 23.1014 4.71912C22.8222 4.71912 22.5958 4.94541 22.5958 5.22472V5.8989C22.5958 6.17816 22.8222 6.40445 23.1014 6.40445Z" fill="#FF7616"/>
<path d="M19.0561 9.77511C19.3354 9.77511 19.5617 9.54882 19.5617 9.26951V8.59533C19.5617 8.31601 19.3353 8.08972 19.0561 8.08972C18.7769 8.08972 18.5505 8.31601 18.5505 8.59533V9.26951C18.5505 9.54882 18.7769 9.77511 19.0561 9.77511Z" fill="#FF7616"/>
<path d="M21.0786 9.77511C21.3578 9.77511 21.5842 9.54882 21.5842 9.26951V8.59533C21.5842 8.31601 21.3578 8.08972 21.0786 8.08972C20.7994 8.08972 20.573 8.31601 20.573 8.59533V9.26951C20.573 9.54882 20.7993 9.77511 21.0786 9.77511Z" fill="#FF7616"/>
<path d="M23.1014 9.77511C23.3807 9.77511 23.607 9.54882 23.607 9.26951V8.59533C23.607 8.31601 23.3806 8.08972 23.1014 8.08972C22.8222 8.08972 22.5958 8.31601 22.5958 8.59533V9.26951C22.5958 9.54882 22.8222 9.77511 23.1014 9.77511Z" fill="#FF7616"/>
<path d="M19.0561 13.1462C19.3354 13.1462 19.5617 12.9199 19.5617 12.6406V11.9664C19.5617 11.6871 19.3353 11.4608 19.0561 11.4608C18.7769 11.4608 18.5505 11.6871 18.5505 11.9664V12.6406C18.5505 12.9199 18.7769 13.1462 19.0561 13.1462Z" fill="#FF7616"/>
<path d="M21.0786 13.1462C21.3578 13.1462 21.5842 12.9199 21.5842 12.6406V11.9664C21.5842 11.6871 21.3578 11.4608 21.0786 11.4608C20.7994 11.4608 20.573 11.6871 20.573 11.9664V12.6406C20.573 12.9199 20.7993 13.1462 21.0786 13.1462Z" fill="#FF7616"/>
<path d="M23.1014 13.1462C23.3807 13.1462 23.607 12.9199 23.607 12.6406V11.9664C23.607 11.6871 23.3806 11.4608 23.1014 11.4608C22.8222 11.4608 22.5958 11.6871 22.5958 11.9664V12.6406C22.5958 12.9199 22.8222 13.1462 23.1014 13.1462Z" fill="#FF7616"/>
<path d="M4.89884 14.4942C5.1781 14.4942 5.40444 14.2679 5.40444 13.9886V13.3144C5.40444 13.0351 5.17804 12.8088 4.89884 12.8088C4.61964 12.8088 4.39323 13.0351 4.39323 13.3144V13.9886C4.39323 14.2679 4.61964 14.4942 4.89884 14.4942Z" fill="#FF7616"/>
<path d="M6.92125 14.4942C7.20051 14.4942 7.42686 14.2679 7.42686 13.9886V13.3144C7.42686 13.0351 7.20045 12.8088 6.92125 12.8088C6.64206 12.8088 6.41565 13.0351 6.41565 13.3144V13.9886C6.41565 14.2679 6.642 14.4942 6.92125 14.4942Z" fill="#FF7616"/>
<path d="M8.94413 14.4942C9.22339 14.4942 9.44973 14.2679 9.44973 13.9886V13.3144C9.44973 13.0351 9.22333 12.8088 8.94413 12.8088C8.66493 12.8088 8.43852 13.0351 8.43852 13.3144V13.9886C8.43852 14.2679 8.66487 14.4942 8.94413 14.4942Z" fill="#FF7616"/>
<path d="M4.89884 17.8653C5.1781 17.8653 5.40444 17.639 5.40444 17.3597V16.6855C5.40444 16.4062 5.17804 16.1799 4.89884 16.1799C4.61964 16.1799 4.39323 16.4062 4.39323 16.6855V17.3597C4.39323 17.639 4.61964 17.8653 4.89884 17.8653Z" fill="#FF7616"/>
<path d="M6.92125 17.8653C7.20051 17.8653 7.42686 17.639 7.42686 17.3597V16.6855C7.42686 16.4062 7.20045 16.1799 6.92125 16.1799C6.64206 16.1799 6.41565 16.4062 6.41565 16.6855V17.3597C6.41565 17.639 6.642 17.8653 6.92125 17.8653Z" fill="#FF7616"/>
<path d="M8.94413 17.8653C9.22339 17.8653 9.44973 17.639 9.44973 17.3597V16.6855C9.44973 16.4062 9.22333 16.1799 8.94413 16.1799C8.66493 16.1799 8.43852 16.4062 8.43852 16.6855V17.3597C8.43852 17.639 8.66487 17.8653 8.94413 17.8653Z" fill="#FF7616"/>
<path d="M4.89884 21.2359C5.1781 21.2359 5.40444 21.0096 5.40444 20.7303V20.0561C5.40444 19.7768 5.17804 19.5505 4.89884 19.5505C4.61964 19.5505 4.39323 19.7768 4.39323 20.0561V20.7303C4.39323 21.0096 4.61964 21.2359 4.89884 21.2359Z" fill="#FF7616"/>
<path d="M6.92125 21.2359C7.20051 21.2359 7.42686 21.0096 7.42686 20.7303V20.0561C7.42686 19.7768 7.20045 19.5505 6.92125 19.5505C6.64206 19.5505 6.41565 19.7768 6.41565 20.0561V20.7303C6.41565 21.0096 6.642 21.2359 6.92125 21.2359Z" fill="#FF7616"/>
<path d="M8.94413 21.2359C9.22339 21.2359 9.44973 21.0096 9.44973 20.7303V20.0561C9.44973 19.7768 9.22333 19.5505 8.94413 19.5505C8.66493 19.5505 8.43852 19.7768 8.43852 20.0561V20.7303C8.43852 21.0096 8.66487 21.2359 8.94413 21.2359Z" fill="#FF7616"/>
<path d="M4.89884 24.6065C5.1781 24.6065 5.40444 24.3802 5.40444 24.1009V23.4267C5.40444 23.1474 5.17804 22.9211 4.89884 22.9211C4.61964 22.9211 4.39323 23.1474 4.39323 23.4267V24.1009C4.39323 24.3802 4.61964 24.6065 4.89884 24.6065Z" fill="#FF7616"/>
<path d="M6.92125 24.6065C7.20051 24.6065 7.42686 24.3802 7.42686 24.1009V23.4267C7.42686 23.1474 7.20045 22.9211 6.92125 22.9211C6.64206 22.9211 6.41565 23.1474 6.41565 23.4267V24.1009C6.41565 24.3802 6.642 24.6065 6.92125 24.6065Z" fill="#FF7616"/>
<path d="M8.94413 24.6065C9.22339 24.6065 9.44973 24.3802 9.44973 24.1009V23.4267C9.44973 23.1474 9.22333 22.9211 8.94413 22.9211C8.66493 22.9211 8.43852 23.1474 8.43852 23.4267V24.1009C8.43852 24.3802 8.66487 24.6065 8.94413 24.6065Z" fill="#FF7616"/>
<path d="M23.1014 16.5168C23.3807 16.5168 23.607 16.2905 23.607 16.0112V15.337C23.607 15.0577 23.3806 14.8314 23.1014 14.8314C22.8222 14.8314 22.5958 15.0577 22.5958 15.337V16.0112C22.5958 16.2905 22.8222 16.5168 23.1014 16.5168Z" fill="#FF7616"/>
<path d="M23.1014 19.8875C23.3807 19.8875 23.607 19.6612 23.607 19.3819V18.7078C23.607 18.4284 23.3806 18.2021 23.1014 18.2021C22.8222 18.2021 22.5958 18.4284 22.5958 18.7078V19.3819C22.5958 19.6612 22.8222 19.8875 23.1014 19.8875Z" fill="#FF7616"/>
<path d="M23.1014 23.2585C23.3807 23.2585 23.607 23.0322 23.607 22.7529V22.0787C23.607 21.7994 23.3806 21.5731 23.1014 21.5731C22.8222 21.5731 22.5958 21.7994 22.5958 22.0787V22.7529C22.5958 23.0322 22.8222 23.2585 23.1014 23.2585Z" fill="#FF7616"/>
<path d="M23.1014 26.6292C23.3807 26.6292 23.607 26.4029 23.607 26.1236V25.4495C23.607 25.1701 23.3806 24.9438 23.1014 24.9438C22.8222 24.9438 22.5958 25.1701 22.5958 25.4495V26.1236C22.5958 26.4029 22.8222 26.6292 23.1014 26.6292Z" fill="#FF7616"/>
<path d="M14.1686 7.92162C14.1686 7.6423 13.9422 7.41602 13.663 7.41602H9.61805C9.33879 7.41602 9.11244 7.6423 9.11244 7.92162C9.11244 8.20094 9.33885 8.42723 9.61805 8.42723H13.663C13.9423 8.42723 14.1686 8.20094 14.1686 7.92162Z" fill="#FF7616"/>
</svg>
