<svg width="300" height="359" viewBox="0 0 300 359" fill="none" xmlns="http://www.w3.org/2000/svg">
<g opacity="0.5" clip-path="url(#clip0_1_6411)">
<path d="M258.164 137.5C256.889 137.5 255.613 137.245 254.338 136.48C251.787 134.949 250.256 132.398 250.256 129.592V92.6021H252.297V129.592C252.297 131.888 253.317 133.674 255.358 134.694C257.144 135.714 259.44 135.714 261.481 134.694C266.327 131.888 269.134 126.531 269.134 120.918V60.4593H271.174V121.174C271.174 127.551 267.858 133.418 262.501 136.48C260.97 137.245 259.695 137.5 258.164 137.5Z" fill="#0052B4"/>
<path d="M267.857 85.2042C267.857 84.9491 267.857 84.4389 267.601 84.4389L252.04 75.5103C251.53 75.0001 250.765 75.0001 249.744 75.7654L244.387 78.8266C242.601 79.847 241.326 82.3981 241.326 84.4389V104.337C241.326 105.612 241.836 106.378 242.601 106.633L257.652 115.306C257.908 115.561 258.418 115.306 258.673 114.796L267.857 85.2042Z" fill="#50A8FF"/>
<path d="M257.653 116.072C257.398 116.072 257.143 116.072 256.888 115.816L241.837 107.143C240.561 106.888 239.796 105.612 239.796 104.082V84.1838C239.796 81.8879 241.327 79.0817 243.367 77.8062L248.725 74.745C250 73.9797 251.276 73.9797 252.041 74.745L267.602 83.6736C268.367 84.1838 268.622 84.9491 268.367 85.7144L258.929 115.051C258.673 115.561 258.418 115.816 257.908 116.072C258.163 116.072 257.908 116.072 257.653 116.072ZM251.02 76.0205C250.765 76.0205 250.255 76.2756 250.255 76.2756L244.898 79.3368C243.367 80.1021 242.347 82.3981 242.347 83.9287V103.827C242.347 104.082 242.347 104.847 242.857 105.102H243.112L257.908 113.776L267.092 84.9491L251.786 76.0205C251.276 76.2756 251.02 76.0205 251.02 76.0205Z" fill="#0052B4"/>
<path d="M260.46 115.306C258.674 116.327 257.399 115.561 257.399 113.52V93.6225C257.399 91.5817 258.929 89.0307 260.46 88.0103L265.817 84.9491C267.858 83.6736 269.388 85.2042 268.878 88.0103L263.521 110.969C263.011 112.755 261.99 114.541 260.46 115.306Z" fill="#0052B4"/>
<path d="M259.184 116.837C258.673 116.837 258.163 116.837 257.908 116.582C256.888 116.071 256.378 115.051 256.378 113.52V93.6225C256.378 91.3265 257.908 88.5204 259.949 87.2449L265.306 84.1837C266.582 83.4184 267.857 83.4184 268.878 84.1837C269.898 84.949 270.408 86.4796 269.898 88.2653L264.541 111.225C264.031 113.265 262.755 115.306 260.969 116.071C260.459 116.582 259.694 116.837 259.184 116.837ZM267.347 85.7143C267.092 85.7143 266.837 85.7143 266.327 85.9694L260.969 89.0306C259.439 89.7959 258.418 92.0919 258.418 93.6225V113.52C258.418 114.031 258.673 114.541 258.929 114.796C259.184 115.051 259.694 114.796 260.204 114.541C261.48 113.776 262.5 112.245 262.755 110.969L268.112 88.0102C268.367 86.9898 268.112 86.2245 267.857 85.9694C267.602 85.7143 267.347 85.7143 267.347 85.7143Z" fill="#0052B4"/>
<path d="M282.654 33.1633L257.909 19.1327C257.144 18.6225 255.869 18.8776 254.848 19.6429L237.756 29.5919C235.715 30.6123 234.185 33.4184 234.185 35.7144V75.5103C234.185 76.5307 234.695 77.5511 235.205 77.8062L260.46 92.0919L282.654 33.1633Z" fill="#50A8FF"/>
<path d="M261.735 91.0715C261.225 92.0919 259.95 92.6021 258.929 92.0919L234.694 78.3164C233.674 77.8061 233.164 76.7857 233.164 75.2551V35.4592C233.164 32.9082 234.95 29.847 236.99 28.5715L254.082 18.6225C255.358 17.8572 256.888 17.6021 257.909 18.1123L283.419 32.6531L261.735 91.0715ZM256.888 19.898C256.378 19.898 255.868 20.1531 255.358 20.4082L238.266 30.3572C236.735 31.3776 235.205 33.6735 235.205 35.7143V75.5102C235.205 76.2755 235.46 76.7857 235.715 77.0408L260.205 90.8163L281.888 33.9286L257.654 20.1531C257.143 19.898 257.143 19.898 256.888 19.898Z" fill="#0052B4"/>
<path d="M274.491 71.1736L285.97 40.5613L261.225 26.5307C260.46 26.0205 259.185 26.2756 258.164 27.0409L241.072 36.9899C239.032 38.0103 237.501 40.8164 237.501 43.1123V49.4899L274.491 71.1736Z" fill="#C5E2FF"/>
<path d="M289.031 39.2858L284.694 33.6736C283.674 32.143 281.633 31.8879 279.592 33.1634L262.501 43.1123C260.205 44.3879 258.674 47.4491 258.674 50.0001V89.796C258.674 91.0715 259.184 92.347 260.205 92.8572C260.715 93.1123 260.97 93.1123 261.48 93.1123C261.99 93.1123 262.756 92.8572 263.521 92.6021L274.49 86.2246C277.041 84.694 279.082 81.8879 280.103 78.5715L289.796 45.6634C290.307 43.1123 290.052 40.8164 289.031 39.2858Z" fill="#0052B4"/>
<path d="M269.388 86.7347L263.265 90.3061C262.5 90.8163 261.735 90.8163 261.224 90.5612C260.714 90.3061 260.459 89.7959 260.459 89.2857L258.929 90.3061C259.184 91.0714 259.694 91.5816 260.459 92.0918C260.969 92.3469 261.48 92.602 261.99 92.602C262.755 92.602 263.52 92.3469 264.286 91.8367L269.133 89.0306L269.388 86.7347Z" fill="#50A8FF"/>
<path d="M286.735 273.214C286.735 272.959 286.735 272.704 286.735 272.194V258.163H270.153L193.878 214.286C185.969 209.694 174.235 209.184 167.602 213.265L89.2857 258.418H72.7041V271.429V271.939C72.7041 275 74.7449 278.061 79.0817 280.612L165.561 330.612C173.469 335.204 185.204 335.714 191.837 331.633L282.143 279.592C285.204 277.806 286.48 275.765 286.735 273.214V272.704V273.214Z" fill="#50A8FF"/>
<path d="M180.357 335.204C174.999 335.204 169.387 333.929 165.05 331.378L78.5708 281.378C74.2341 278.827 71.6831 275.255 71.6831 271.939V271.429V257.398H89.03L167.091 212.245C173.979 208.163 186.479 208.673 194.387 213.265L270.663 257.143H288.01V272.194C288.01 272.449 288.01 272.959 288.01 273.214V273.469C287.755 276.276 286.224 278.316 282.908 280.102L192.601 332.143C189.285 334.184 184.948 335.204 180.357 335.204ZM73.7239 259.439V271.429V271.939C73.7239 274.745 75.7647 277.551 79.5912 279.847L166.071 329.847C173.469 334.184 184.948 334.694 191.326 330.867L281.632 278.827C284.183 277.296 285.459 275.765 285.714 273.725V272.959V272.704V259.694H269.897L193.367 215.561C185.969 211.225 174.489 210.714 168.112 214.541L89.5402 259.949H73.7239V259.439Z" fill="#0052B4"/>
<path d="M282.142 265.561L191.835 317.602C185.203 321.429 173.213 320.918 165.56 316.582L79.0803 266.582C71.1722 261.99 70.4069 255.357 77.2946 251.276L167.601 199.235C174.233 195.408 186.223 195.918 193.876 200.255L280.356 250.255C288.264 254.847 289.029 261.48 282.142 265.561Z" fill="#50A8FF"/>
<path d="M280.356 256.888L193.877 207.143C185.968 202.551 174.234 202.041 167.601 206.122L77.295 258.163C75.7644 259.184 74.4889 260.204 73.7236 261.48V268.367C74.744 270.153 76.5297 271.939 79.0807 273.469L165.56 323.469C173.468 328.061 185.203 328.571 191.836 324.49L282.142 272.449C289.03 268.367 288.264 261.48 280.356 256.888Z" fill="#C5E2FF"/>
<path d="M180.611 321.173C175.254 321.173 169.642 319.898 165.305 317.347L78.8253 267.347C74.4886 264.796 71.9376 261.224 71.9376 257.908C71.9376 254.847 73.7233 252.296 77.0396 250.51L167.346 198.469C174.489 194.388 186.733 194.898 194.642 199.49L281.121 249.49C285.458 252.041 288.009 255.612 288.009 258.929C288.009 261.99 286.223 264.541 282.907 266.327L192.601 318.367C189.285 320.408 184.948 321.173 180.611 321.173ZM178.825 197.449C174.744 197.449 170.917 198.214 167.856 200L77.5498 252.296C74.9988 253.827 73.4682 255.867 73.4682 257.908C73.4682 260.714 75.509 263.52 79.3355 265.561L165.815 315.561C173.213 319.898 184.693 320.408 191.07 316.582L281.376 264.541C283.927 263.01 285.458 260.969 285.458 258.929C285.458 256.122 283.417 253.316 279.591 251.276L193.366 201.276C189.285 198.724 183.927 197.449 178.825 197.449Z" fill="#0052B4"/>
<path d="M180.611 321.173L180.356 335.204L191.836 331.633L286.733 276.531L287.754 260.714L280.356 266.326L186.478 320.153L180.611 321.173Z" fill="#0052B4"/>
<path d="M251.785 261.225L243.112 206.888L242.347 203.317L235.204 159.184L234.694 155.612L227.806 112.5L227.551 110.204L225 108.674L180.357 82.9084L135.969 108.674L133.418 110.204L132.908 112.5L125.765 154.337L125.255 158.163L117.857 202.041L117.347 205.868L107.908 261.48L111.734 262.5L112.245 260.204L147.194 251.531L178.316 299.745L182.143 299.49L213.775 251.786L248.214 260.204L248.724 261.99L251.785 261.225ZM246.938 255.868L215.816 248.214L239.796 211.99L246.938 255.868ZM174.234 240.561L148.469 246.939L125.51 211.48L174.234 240.561ZM124.234 206.123L150.765 198.98L173.469 235.204L124.234 206.123ZM154.847 197.704L178.316 191.327L178.061 234.949L154.847 197.704ZM154.847 149.49L174.234 183.163L132.143 158.163L154.847 149.49ZM129.847 154.592L136.224 117.347L152.551 145.919L129.847 154.592ZM228.571 159.184L185.459 183.419L205.357 149.745L228.571 159.184ZM207.398 146.174L224.489 117.347L230.612 155.612L207.398 146.174ZM227.04 164.541L207.398 194.643L184.949 188.266L227.04 164.541ZM182.143 180.612L182.398 140.561L201.53 148.214L182.143 180.612ZM178.061 182.143L158.673 147.959L178.571 140.561L178.061 182.143ZM174.489 188.266L152.296 194.388L133.163 163.776L174.489 188.266ZM182.143 191.582L205.102 198.214L182.143 233.674V191.582ZM209.183 199.49L235.714 207.143L185.714 235.459L209.183 199.49ZM234.438 212.5L211.479 247.194L184.949 240.561L234.438 212.5ZM238.52 203.572L211.479 195.919L232.143 164.286L238.52 203.572ZM203.571 144.643L184.949 137.245L219.898 117.092L203.571 144.643ZM180.357 87.7553L221.428 111.48L180.357 135.204L139.285 111.48L180.357 87.7553ZM175.765 137.245L156.632 144.388L140.816 117.092L175.765 137.245ZM128.316 163.265L148.214 195.408L121.428 202.551L128.316 163.265ZM112.5 255.868L120.153 210.714L144.132 247.959L112.5 255.868ZM150.765 250.51L177.806 243.878L177.551 292.092L150.765 250.51ZM181.632 291.837L181.887 243.878L209.183 250.766L181.632 291.837Z" fill="#0052B4"/>
<path d="M225.51 90.0512L180.357 116.327L135.204 90.0512L180.357 64.0308L225.51 90.0512Z" fill="#50A8FF"/>
<path d="M135.204 90.0511V109.184L180.357 135.204V116.327L135.204 90.0511Z" fill="#50A8FF"/>
<path d="M225.51 96.1735L180.357 122.194L135.204 96.1735L180.357 69.898L225.51 96.1735Z" fill="#C5E2FF"/>
<path d="M225.51 89.0307L180.357 63.0103L135.203 89.0307L134.183 89.5409V90.8164V109.694L179.336 135.714L180.357 136.225L181.377 135.714L226.53 109.694V90.8164V89.5409L225.51 89.0307ZM180.357 65.3062L223.469 90.3062L180.357 115.306L137.244 90.3062L180.357 65.3062ZM179.336 133.418L136.224 108.418V91.8368L179.336 116.837V133.418Z" fill="#0052B4"/>
<path d="M180.866 134.439V132.143L224.999 106.633V108.929L180.866 134.439Z" fill="#50A8FF"/>
<path d="M171.938 46.1736C170.408 45.1532 168.622 45.1532 166.581 46.4287L165.306 47.194C160.969 49.745 157.142 56.6328 157.142 62.5001V84.694L164.03 88.7756L178.316 50.0001L171.938 46.1736Z" fill="#50A8FF"/>
<path d="M164.796 89.2858L164.03 89.796L156.377 85.2042V62.5001C156.377 56.1225 160.204 48.9797 165.051 46.1736L166.326 45.4083C168.622 44.1327 170.918 43.8777 172.704 45.1532L179.847 49.4899L164.796 89.2858ZM158.163 84.1838L163.265 87.245L177.041 50.5103L171.173 46.9389C169.898 46.1736 168.367 46.4287 166.836 47.194L165.816 47.9593C161.734 50.2552 158.163 56.8879 158.163 62.5001V84.1838Z" fill="#0052B4"/>
<path d="M166.836 68.1123C166.836 61.9898 170.408 54.847 175.254 52.0408L173.214 50.5102C171.683 49.4898 169.897 49.4898 167.857 50.7653L166.581 51.5306C162.244 54.0817 158.418 60.9694 158.418 66.8368V70.1531L166.836 75.2551V68.1123Z" fill="#C5E2FF"/>
<path d="M179.081 49.2348C177.296 48.2144 175 48.4695 172.704 49.745L171.428 50.5103C166.581 53.3164 162.755 60.4593 162.755 66.8368V89.2858L163.775 89.796L182.143 79.0817V56.3776C182.398 53.0613 181.122 50.2552 179.081 49.2348Z" fill="#0052B4"/>
<path d="M277.807 7.90828C278.062 7.65317 278.062 7.14297 277.807 7.14297L267.348 1.53072C266.837 1.02052 265.817 1.02052 264.797 1.53072L252.552 8.41848C251.021 9.43889 249.49 9.69399 248.215 9.18379L236.225 4.84705C235.205 4.33685 233.674 4.59195 232.143 5.61236L197.45 25.7654C195.409 26.7858 193.878 29.592 193.878 31.8879V40.0511C193.878 41.3266 192.858 42.8573 191.837 43.6226L80.868 107.143C79.0823 108.163 77.5516 110.714 77.5516 113.01V125.51C77.5516 126.786 78.0618 127.806 79.0822 127.806L89.2863 133.418L93.6231 126.276L158.164 83.4185L264.797 21.9389C266.582 20.9185 268.113 18.3675 268.113 16.0715V13.5205L277.807 7.90828Z" fill="#50A8FF"/>
<path d="M89.5408 134.949L78.5714 128.827C77.2959 128.572 76.5306 127.296 76.5306 125.51V113.01C76.5306 110.459 78.3163 107.653 80.3571 106.378L191.582 42.8572C192.347 42.347 193.112 41.0715 193.112 40.3062V32.1429C193.112 29.5919 194.898 26.5307 197.194 25.2552L231.888 5.10212C233.673 4.08171 235.204 3.82661 236.735 4.33682L248.724 8.67355C249.745 8.92865 250.765 8.67355 252.041 7.90824L264.286 0.765387C265.561 8.08854e-05 266.837 0.255183 268.112 0.765387L278.316 6.37763C278.827 6.63273 279.082 7.14294 279.082 7.65314C279.082 8.16335 278.827 8.67355 278.316 8.92865L269.133 14.0307V16.0715C269.133 18.6225 267.347 21.4287 265.306 22.7042L158.929 84.1838L94.3878 127.041L89.5408 134.949ZM235.204 5.86743C234.439 5.86743 233.673 6.12253 232.908 6.63273L198.214 26.7858C196.684 27.8062 195.153 30.1021 195.153 31.8878V40.0511C195.153 41.5817 194.133 43.6225 192.602 44.3878L81.3775 107.908C79.8469 108.929 78.5714 110.969 78.5714 112.755V125.255C78.5714 125.51 78.5714 126.531 79.3367 126.531H79.5918L89.0306 131.633L93.1122 125L157.653 82.1429L264.286 20.4082C265.816 19.3878 267.092 17.347 267.092 15.5613V12.5001L276.276 7.39804L266.837 2.296C266.327 1.7858 265.561 2.0409 265.306 2.296L253.061 9.43886C251.275 10.4593 249.49 10.7144 247.959 10.2042L235.969 5.86743C235.714 5.86743 235.459 5.86743 235.204 5.86743Z" fill="#0052B4"/>
<path d="M275 12.245L264.54 6.63274C263.775 6.12254 263.01 6.12254 261.989 6.63274L254.847 10.9695C253.316 11.9899 251.785 12.245 250.51 11.7348L238.52 7.39805C237.5 6.88785 235.969 7.14295 234.438 8.16336L200 28.0613C197.959 29.0817 196.428 31.8878 196.428 34.1838V34.9491L216.326 46.6838C216.326 46.6838 205.612 53.0613 205.102 53.0613C204.847 53.0613 199.234 49.745 193.622 46.1736L83.1629 109.439C81.3772 110.459 79.8466 113.01 79.8466 115.306V118.112L96.6834 128.061L160.459 85.7144L267.091 24.2348C268.877 23.2144 270.408 20.6634 270.408 18.3674V15.8164L274.745 13.2654C275.255 12.7552 275.255 12.245 275 12.245Z" fill="#C5E2FF"/>
<path d="M279.082 6.37771C278.062 5.8675 276.786 5.8675 275.766 6.63281L263.521 13.7757C262.246 14.541 260.97 14.7961 260.205 14.541L247.96 10.2042C246.429 9.69403 244.899 9.94914 243.113 10.9695L208.419 31.1226C206.123 32.3981 204.337 35.4593 204.337 38.0104V46.1736C204.337 47.194 203.572 48.4695 202.807 48.7246L91.5822 112.245C89.2863 113.521 87.7557 116.327 87.7557 118.878V131.378C87.7557 132.653 88.2659 133.929 89.2863 134.439C89.7965 134.694 90.0516 134.694 90.5618 134.694C91.3271 134.694 91.8373 134.439 92.6026 134.184L276.531 28.5716C278.827 27.2961 280.358 24.49 280.358 21.9389V9.43893C280.613 8.16342 280.103 7.14301 279.082 6.37771Z" fill="#0052B4"/>
<path d="M263.52 36.4797C263.52 35.7143 263.52 34.949 263.52 34.4388C263.265 32.398 262.245 30.8674 260.969 30.3572C259.439 29.847 257.908 30.1021 256.122 31.3776C253.061 33.6735 251.02 38.5205 251.531 42.347C251.531 42.6021 251.786 43.1123 251.786 43.3674L253.571 42.347V42.0919C253.061 39.0307 254.847 34.6939 257.398 32.9082C258.163 32.398 258.929 32.1429 259.439 32.1429C259.694 32.1429 259.949 32.1429 260.204 32.1429C260.969 32.398 261.48 33.4184 261.735 34.6939C261.735 35.7143 261.735 36.7348 261.48 37.7552L263.52 36.4797Z" fill="#50A8FF"/>
<path d="M190.307 56.3777C188.777 55.3572 186.991 55.3572 184.95 56.6328L183.675 57.3981C179.338 59.9491 175.511 66.8368 175.511 72.7042V94.8981L189.032 103.061L203.318 64.2858L190.307 56.3777Z" fill="#50A8FF"/>
<path d="M189.797 103.827L189.031 104.337L174.49 95.6633V72.9592C174.49 66.5817 178.317 59.4388 183.164 56.6327L184.439 55.8674C186.735 54.5919 189.031 54.3368 190.817 55.6123L204.848 63.7756L189.797 103.827ZM176.531 94.3878L188.521 101.531L202.297 64.796L189.797 57.398C188.521 56.6327 186.99 56.8878 185.46 57.6531L184.184 58.4184C180.103 60.7143 176.531 67.347 176.531 72.9592V94.3878Z" fill="#0052B4"/>
<path d="M188.011 81.1224C188.011 75 191.582 67.8571 196.429 65.051L194.388 63.5204C192.858 62.5 191.072 62.5 189.031 63.7755L187.756 64.5408C183.419 67.0918 179.592 73.9796 179.592 79.8469V83.1632L188.011 88.2653V81.1224Z" fill="#C5E2FF"/>
<path d="M204.083 63.5204C202.297 62.5 200.001 62.7551 197.705 64.0306L196.429 64.7959C191.583 67.602 187.756 74.7449 187.756 81.1225V103.827L188.776 104.337L207.144 93.6225V70.9184C207.399 67.3469 206.123 64.7959 204.083 63.5204Z" fill="#0052B4"/>
<path d="M196.43 86.4796C195.92 86.4796 195.409 86.4796 194.899 86.2245C193.369 85.7143 192.603 84.1837 192.348 82.1429C191.838 78.3163 193.879 73.4694 196.94 71.1735C198.471 69.898 200.256 69.6429 201.787 70.1531C203.317 70.6633 204.083 72.1939 204.338 74.2347C204.848 78.0612 202.807 82.9082 199.746 85.2041C198.471 85.9694 197.45 86.4796 196.43 86.4796ZM200.256 71.6837C199.746 71.6837 198.981 71.9388 198.215 72.449C195.664 74.2347 193.879 78.5714 194.389 81.6327C194.644 82.9082 195.154 83.9286 195.92 84.1837C196.685 84.4388 197.705 84.1837 198.726 83.4184C201.277 81.6327 203.062 77.2959 202.552 74.2347C202.297 72.9592 201.787 71.9388 201.022 71.6837C200.766 71.6837 200.511 71.6837 200.256 71.6837Z" fill="#50A8FF"/>
<path d="M85.9688 82.6531L49.9994 61.4797C48.979 60.4593 47.1933 60.4593 45.4075 61.4797L11.479 81.1225C9.69326 82.1429 7.90755 84.1837 6.88714 86.4797L3.31571 93.8776C2.2953 96.1735 1.53 98.4695 1.53 100.51V163.265C1.53 166.072 2.55041 168.112 4.33612 169.133L41.3259 190.816L45.6626 180.357L51.0198 177.296C53.5708 175.765 55.6116 172.449 55.6116 169.388V156.378L85.9688 82.6531Z" fill="#50A8FF"/>
<path d="M41.8367 192.602L3.31633 170.153C1.27551 169.133 0 166.582 0 163.265V100.51C0 98.2144 0.765306 95.6634 1.78571 93.1123L5.35714 85.7144C6.63265 83.1634 8.41837 80.8674 10.7143 79.847L44.3878 60.4593C46.6837 59.1838 48.9796 59.1838 50.7653 60.4593L87.5 82.143L56.6327 156.633V169.388C56.6327 172.704 54.3367 176.786 51.5306 178.316L46.4286 181.123L41.8367 192.602ZM47.9592 62.245C47.1939 62.245 46.4286 62.5001 45.9184 62.7552L12.2449 82.3981C10.7143 83.4185 9.18367 85.2042 8.16327 87.245L4.33673 94.3879C3.31633 96.4287 2.80612 98.4695 2.80612 100.51V163.265C2.80612 165.561 3.57143 167.092 4.84694 167.857L40.5612 188.776L44.3878 179.337L50.2551 176.021C52.2959 174.745 54.0816 171.684 54.0816 169.388V155.867L84.1837 83.1634L49.2347 62.7552C48.7245 62.245 48.4694 62.245 47.9592 62.245Z" fill="#0052B4"/>
<path d="M68.1119 145.918L90.5609 91.8368L54.5915 70.6633C53.5711 69.6429 51.7854 69.6429 49.9997 70.6633L16.0711 90.3061C14.2854 91.3266 12.4997 93.3674 11.4793 95.6633L7.65275 103.061C6.63234 105.357 5.86703 107.653 5.86703 109.694V110.714L68.1119 145.918Z" fill="#C5E2FF"/>
<path d="M91.581 85.2042L88.0096 82.143C86.479 80.8675 84.1831 80.6124 81.632 82.143L47.9586 101.531C45.9178 102.806 43.8769 104.847 42.6014 107.398L39.03 114.796C37.7545 117.347 37.2443 119.898 37.2443 122.194V184.949C37.2443 188.265 38.5198 190.816 40.8157 191.837L70.4076 207.653C71.1729 208.163 71.9382 208.163 72.7035 208.163C73.979 208.163 75.2545 207.653 76.53 206.888L88.5198 200C91.3259 198.214 93.6218 194.388 93.6218 191.072V91.0716C93.8769 88.5205 93.1116 86.4797 91.581 85.2042Z" fill="#0052B4"/>
<path d="M93.6231 131.888L91.5822 133.163V113.776L93.6231 112.755V131.888Z" fill="#50A8FF"/>
<path d="M66.0708 152.551C65.0504 152.551 64.2851 152.296 63.2647 151.786C61.479 150.765 60.2035 148.47 60.2035 145.408C60.2035 144.133 60.4586 142.857 60.7137 141.582L65.3055 125.51C65.8157 123.47 67.0912 121.939 68.877 120.918C70.1525 120.153 71.1729 120.153 71.6831 120.408C72.4484 120.663 72.9586 121.174 73.4688 121.939L77.2953 130.612L78.3157 132.908C78.5708 133.674 78.5708 134.694 78.5708 135.714C78.5708 141.327 74.7443 147.959 69.8974 150.765C68.6219 152.041 67.3463 152.551 66.0708 152.551ZM71.1729 122.704C70.9178 122.704 70.6627 122.704 70.1525 122.959C69.1321 123.725 68.1117 124.745 67.6015 126.276L63.0096 142.092C62.4994 143.367 62.4994 144.388 62.4994 145.663C62.4994 147.704 63.2647 149.235 64.2851 150C65.5606 150.765 67.0912 150.51 68.877 149.49C72.9586 146.939 76.53 141.072 76.53 136.225C76.53 135.204 76.53 134.439 76.0198 133.674L75.7647 132.653L71.428 123.214C71.428 122.704 71.428 122.704 71.1729 122.704Z" fill="#50A8FF"/>
<path d="M60.7134 57.9082C60.7134 57.6531 60.7134 57.1429 60.4583 57.1429L39.0297 44.6429C39.0297 44.6429 38.7746 44.6429 38.7746 44.3878C38.0093 44.1327 36.9889 44.1327 35.9685 44.898C34.1828 45.9184 32.6521 48.2143 32.1419 50.5102L26.0195 77.0409C25.5093 79.0817 26.2746 80.6123 27.295 81.1225L47.9583 93.3674C48.4685 93.6225 48.9787 93.3674 48.9787 92.8572L60.7134 57.9082Z" fill="#50A8FF"/>
<path d="M48.4688 94.1328C48.2137 94.1328 47.9586 94.1328 47.7035 93.8777L27.0402 81.6328C25.5096 81.1226 24.7443 79.0818 25.2545 76.5307L31.3769 50.0001C31.8871 47.4491 33.6729 44.8981 35.7137 43.6226C36.9892 42.8573 38.2647 42.6022 39.5402 43.1124C39.7953 43.1124 39.7953 43.3675 40.0504 43.3675L61.479 55.8675C62.2443 56.3777 62.4994 57.143 62.2443 57.9083L50.7647 92.6022C50.5096 93.1124 50.2545 93.6226 49.7443 93.6226C48.7239 94.1328 48.4688 94.1328 48.4688 94.1328ZM37.7545 45.1532C37.2443 45.1532 36.9892 45.4083 36.479 45.6634C34.9484 46.6838 33.6729 48.7246 33.1626 50.5103L27.0402 77.0409C26.7851 78.5716 27.0402 79.592 27.8055 79.8471L48.4688 91.8369L59.6933 57.6532L38.2647 45.4083C38.0096 45.1532 38.0096 45.1532 37.7545 45.1532Z" fill="#0052B4"/>
<path d="M41.0708 50.7654C41.0708 50.7654 40.8157 50.7654 40.8157 50.5103C40.0504 50.2552 39.03 50.2552 38.0096 51.0205C36.2239 52.0409 34.6933 54.3368 34.1831 56.6327L30.8668 70.6633L55.6117 85.2042L62.4994 64.0307C62.4994 63.7756 62.4994 63.2654 62.2443 63.2654L41.0708 50.7654Z" fill="#C5E2FF"/>
<path d="M63.0091 59.6941C63.0091 58.1634 62.2438 56.8879 61.2234 56.3777C60.203 55.8675 58.6724 55.8675 57.1418 56.8879C55.101 58.1634 53.3153 60.7145 52.8051 63.2655L46.6826 89.7961C46.1724 92.092 46.6826 93.8777 47.9581 94.643C48.4683 94.8981 48.9785 95.1532 49.7438 95.1532C50.5091 95.1532 51.2744 94.8981 52.2948 94.3879L59.1826 90.0512C61.7336 88.5206 63.7744 84.9492 63.5193 82.143L63.0091 59.6941Z" fill="#0052B4"/>
<path d="M225.255 339.286C226.101 339.286 226.786 338.943 226.786 338.52C226.786 338.098 226.101 337.755 225.255 337.755C224.41 337.755 223.725 338.098 223.725 338.52C223.725 338.943 224.41 339.286 225.255 339.286Z" fill="#0052B4"/>
<path d="M219.643 335.97C220.488 335.97 221.173 335.627 221.173 335.204C221.173 334.782 220.488 334.439 219.643 334.439C218.798 334.439 218.112 334.782 218.112 335.204C218.112 335.627 218.798 335.97 219.643 335.97Z" fill="#0052B4"/>
<path d="M213.01 331.378C212.499 331.633 212.499 332.398 213.01 332.653C213.52 332.908 214.54 332.908 215.05 332.653C215.561 332.398 215.561 331.633 215.05 331.378C214.54 330.867 213.52 330.867 213.01 331.378Z" fill="#0052B4"/>
<path d="M207.399 328.061C206.888 328.316 206.888 329.082 207.399 329.337C207.909 329.592 208.929 329.592 209.439 329.337C209.95 329.082 209.95 328.316 209.439 328.061C208.929 327.806 207.909 327.806 207.399 328.061Z" fill="#0052B4"/>
<path d="M229.847 334.694C229.337 334.949 229.337 335.714 229.847 335.97C230.357 336.225 231.378 336.225 231.888 335.97C232.398 335.714 232.398 334.949 231.888 334.694C231.378 334.184 230.357 334.184 229.847 334.694Z" fill="#0052B4"/>
<path d="M224.235 331.378C223.724 331.633 223.724 332.398 224.235 332.653C224.745 332.908 225.765 332.908 226.276 332.653C226.786 332.398 226.786 331.633 226.276 331.378C225.765 330.867 224.745 330.867 224.235 331.378Z" fill="#0052B4"/>
<path d="M218.622 328.061C218.112 328.316 218.112 329.082 218.622 329.337C219.132 329.592 220.153 329.592 220.663 329.337C221.173 329.082 221.173 328.316 220.663 328.061C220.153 327.806 219.132 327.806 218.622 328.061Z" fill="#0052B4"/>
<path d="M213.01 324.745C212.499 325 212.499 325.766 213.01 326.021C213.52 326.276 214.54 326.276 215.05 326.021C215.561 325.766 215.561 325 215.05 324.745C214.54 324.49 213.52 324.49 213.01 324.745Z" fill="#0052B4"/>
<path d="M235.46 331.378C234.95 331.633 234.95 332.398 235.46 332.653C235.97 332.908 236.99 332.908 237.501 332.653C238.011 332.398 238.011 331.633 237.501 331.378C236.99 330.867 235.97 330.867 235.46 331.378Z" fill="#0052B4"/>
<path d="M229.847 328.061C229.337 328.316 229.337 329.082 229.847 329.337C230.357 329.592 231.378 329.592 231.888 329.337C232.398 329.082 232.398 328.316 231.888 328.061C231.378 327.806 230.357 327.806 229.847 328.061Z" fill="#0052B4"/>
<path d="M225.255 326.276C226.101 326.276 226.786 325.933 226.786 325.51C226.786 325.088 226.101 324.745 225.255 324.745C224.41 324.745 223.725 325.088 223.725 325.51C223.725 325.933 224.41 326.276 225.255 326.276Z" fill="#0052B4"/>
<path d="M218.622 321.684C218.112 321.939 218.112 322.704 218.622 322.959C219.132 323.214 220.153 323.214 220.663 322.959C221.173 322.704 221.173 321.939 220.663 321.684C220.153 321.174 219.132 321.174 218.622 321.684Z" fill="#0052B4"/>
<path d="M241.071 328.061C240.561 328.316 240.561 329.082 241.071 329.337C241.581 329.592 242.601 329.592 243.112 329.337C243.622 329.082 243.622 328.316 243.112 328.061C242.601 327.806 241.581 327.806 241.071 328.061Z" fill="#0052B4"/>
<path d="M235.46 324.745C234.95 325 234.95 325.766 235.46 326.021C235.97 326.276 236.99 326.276 237.501 326.021C238.011 325.766 238.011 325 237.501 324.745C236.99 324.49 235.97 324.49 235.46 324.745Z" fill="#0052B4"/>
<path d="M229.847 321.684C229.337 321.939 229.337 322.704 229.847 322.959C230.357 323.214 231.378 323.214 231.888 322.959C232.398 322.704 232.398 321.939 231.888 321.684C231.378 321.174 230.357 321.174 229.847 321.684Z" fill="#0052B4"/>
<path d="M224.235 318.368C223.724 318.623 223.724 319.388 224.235 319.643C224.745 319.898 225.765 319.898 226.276 319.643C226.786 319.388 226.786 318.623 226.276 318.368C225.765 318.112 224.745 318.112 224.235 318.368Z" fill="#0052B4"/>
<path d="M246.683 324.745C246.173 325 246.173 325.766 246.683 326.021C247.194 326.276 248.214 326.276 248.724 326.021C249.234 325.766 249.234 325 248.724 324.745C248.214 324.49 247.194 324.49 246.683 324.745Z" fill="#0052B4"/>
<path d="M241.071 321.684C240.561 321.939 240.561 322.704 241.071 322.959C241.581 323.214 242.601 323.214 243.112 322.959C243.622 322.704 243.622 321.939 243.112 321.684C242.601 321.174 241.581 321.174 241.071 321.684Z" fill="#0052B4"/>
<path d="M235.46 318.368C234.95 318.623 234.95 319.388 235.46 319.643C235.97 319.898 236.99 319.898 237.501 319.643C238.011 319.388 238.011 318.623 237.501 318.368C236.99 318.112 235.97 318.112 235.46 318.368Z" fill="#0052B4"/>
<path d="M229.847 315.051C229.337 315.306 229.337 316.072 229.847 316.327C230.357 316.582 231.378 316.582 231.888 316.327C232.398 316.072 232.398 315.306 231.888 315.051C231.378 314.796 230.357 314.796 229.847 315.051Z" fill="#0052B4"/>
<path d="M252.296 321.684C251.786 321.939 251.786 322.704 252.296 322.959C252.806 323.214 253.827 323.214 254.337 322.959C254.847 322.704 254.847 321.939 254.337 321.684C253.827 321.174 253.061 321.174 252.296 321.684Z" fill="#0052B4"/>
<path d="M246.683 318.368C246.173 318.623 246.173 319.388 246.683 319.643C247.194 319.898 248.214 319.898 248.724 319.643C249.234 319.388 249.234 318.623 248.724 318.368C248.214 318.112 247.194 318.112 246.683 318.368Z" fill="#0052B4"/>
<path d="M241.071 315.051C240.561 315.306 240.561 316.072 241.071 316.327C241.581 316.582 242.601 316.582 243.112 316.327C243.622 316.072 243.622 315.306 243.112 315.051C242.601 314.796 241.581 314.796 241.071 315.051Z" fill="#0052B4"/>
<path d="M235.46 311.735C234.95 311.99 234.95 312.755 235.46 313.01C235.97 313.265 236.99 313.265 237.501 313.01C238.011 312.755 238.011 311.99 237.501 311.735C236.99 311.48 235.97 311.48 235.46 311.735Z" fill="#0052B4"/>
<path d="M257.908 318.368C257.398 318.623 257.398 319.388 257.908 319.643C258.419 319.898 259.439 319.898 259.949 319.643C260.459 319.388 260.459 318.623 259.949 318.368C259.439 318.112 258.674 318.112 257.908 318.368Z" fill="#0052B4"/>
<path d="M252.296 315.051C251.786 315.306 251.786 316.072 252.296 316.327C252.806 316.582 253.827 316.582 254.337 316.327C254.847 316.072 254.847 315.306 254.337 315.051C253.827 314.796 253.061 314.796 252.296 315.051Z" fill="#0052B4"/>
<path d="M246.683 311.735C246.173 311.99 246.173 312.755 246.683 313.01C247.194 313.265 248.214 313.265 248.724 313.01C249.234 312.755 249.234 311.99 248.724 311.735C248.214 311.48 247.194 311.48 246.683 311.735Z" fill="#0052B4"/>
<path d="M241.071 308.674C240.561 308.929 240.561 309.694 241.071 309.949C241.581 310.204 242.601 310.204 243.112 309.949C243.622 309.694 243.622 308.929 243.112 308.674C242.601 308.163 241.581 308.163 241.071 308.674Z" fill="#0052B4"/>
<path d="M263.521 315.051C263.011 315.306 263.011 316.072 263.521 316.327C264.031 316.582 265.052 316.582 265.562 316.327C266.072 316.072 266.072 315.306 265.562 315.051C265.052 314.796 264.286 314.796 263.521 315.051Z" fill="#0052B4"/>
<path d="M257.908 311.735C257.398 311.99 257.398 312.755 257.908 313.01C258.419 313.265 259.439 313.265 259.949 313.01C260.459 312.755 260.459 311.99 259.949 311.735C259.439 311.48 258.674 311.48 257.908 311.735Z" fill="#0052B4"/>
<path d="M252.296 308.674C251.786 308.929 251.786 309.694 252.296 309.949C252.806 310.204 253.827 310.204 254.337 309.949C254.847 309.694 254.847 308.929 254.337 308.674C253.827 308.163 253.061 308.163 252.296 308.674Z" fill="#0052B4"/>
<path d="M246.683 305.357C246.173 305.612 246.173 306.378 246.683 306.633C247.194 306.888 248.214 306.888 248.724 306.633C249.234 306.378 249.234 305.612 248.724 305.357C248.214 305.102 247.194 305.102 246.683 305.357Z" fill="#0052B4"/>
<path d="M269.132 311.735C268.622 311.99 268.622 312.755 269.132 313.01C269.642 313.265 270.663 313.265 271.173 313.01C271.683 312.755 271.683 311.99 271.173 311.735C270.663 311.48 269.897 311.48 269.132 311.735Z" fill="#0052B4"/>
<path d="M263.521 308.674C263.011 308.929 263.011 309.694 263.521 309.949C264.031 310.204 265.052 310.204 265.562 309.949C266.072 309.694 266.072 308.929 265.562 308.674C265.052 308.163 264.286 308.163 263.521 308.674Z" fill="#0052B4"/>
<path d="M257.908 305.357C257.398 305.612 257.398 306.378 257.908 306.633C258.419 306.888 259.439 306.888 259.949 306.633C260.459 306.378 260.459 305.612 259.949 305.357C259.439 305.102 258.674 305.102 257.908 305.357Z" fill="#0052B4"/>
<path d="M253.317 303.572C254.162 303.572 254.847 303.229 254.847 302.806C254.847 302.384 254.162 302.041 253.317 302.041C252.471 302.041 251.786 302.384 251.786 302.806C251.786 303.229 252.471 303.572 253.317 303.572Z" fill="#0052B4"/>
<path d="M274.745 308.674C274.234 308.929 274.234 309.694 274.745 309.949C275.255 310.204 276.275 310.204 276.785 309.949C277.296 309.694 277.296 308.929 276.785 308.674C276.53 308.163 275.51 308.163 274.745 308.674Z" fill="#0052B4"/>
<path d="M269.132 305.357C268.622 305.612 268.622 306.378 269.132 306.633C269.642 306.888 270.663 306.888 271.173 306.633C271.683 306.378 271.683 305.612 271.173 305.357C270.663 305.102 269.897 305.102 269.132 305.357Z" fill="#0052B4"/>
<path d="M263.521 302.041C263.011 302.296 263.011 303.061 263.521 303.316C264.031 303.572 265.052 303.572 265.562 303.316C266.072 303.061 266.072 302.296 265.562 302.041C265.052 301.786 264.286 301.786 263.521 302.041Z" fill="#0052B4"/>
<path d="M257.908 298.98C257.398 299.235 257.398 300 257.908 300.255C258.419 300.51 259.439 300.51 259.949 300.255C260.459 300 260.459 299.235 259.949 298.98C259.439 298.469 258.674 298.469 257.908 298.98Z" fill="#0052B4"/>
<path d="M280.357 305.357C279.847 305.612 279.847 306.378 280.357 306.633C280.867 306.888 281.888 306.888 282.398 306.633C282.908 306.378 282.908 305.612 282.398 305.357C282.143 305.102 281.122 305.102 280.357 305.357Z" fill="#0052B4"/>
<path d="M274.745 302.041C274.234 302.296 274.234 303.061 274.745 303.316C275.255 303.572 276.275 303.572 276.785 303.316C277.296 303.061 277.296 302.296 276.785 302.041C276.53 301.786 275.51 301.786 274.745 302.041Z" fill="#0052B4"/>
<path d="M270.409 300.255C271.254 300.255 271.939 299.913 271.939 299.49C271.939 299.067 271.254 298.725 270.409 298.725C269.563 298.725 268.878 299.067 268.878 299.49C268.878 299.913 269.563 300.255 270.409 300.255Z" fill="#0052B4"/>
<path d="M263.521 295.663C263.011 295.919 263.011 296.684 263.521 296.939C264.031 297.194 265.052 297.194 265.562 296.939C266.072 296.684 266.072 295.919 265.562 295.663C265.052 295.408 264.286 295.408 263.521 295.663Z" fill="#0052B4"/>
<path d="M286.224 302.041C285.714 302.296 285.714 303.061 286.224 303.316C286.734 303.572 287.755 303.572 288.265 303.316C288.775 303.061 288.775 302.296 288.265 302.041C287.755 301.786 286.734 301.786 286.224 302.041Z" fill="#0052B4"/>
<path d="M280.357 298.98C279.847 299.235 279.847 300 280.357 300.255C280.867 300.51 281.888 300.51 282.398 300.255C282.908 300 282.908 299.235 282.398 298.98C282.143 298.469 281.122 298.469 280.357 298.98Z" fill="#0052B4"/>
<path d="M274.745 295.663C274.234 295.919 274.234 296.684 274.745 296.939C275.255 297.194 276.275 297.194 276.785 296.939C277.296 296.684 277.296 295.919 276.785 295.663C276.53 295.408 275.51 295.408 274.745 295.663Z" fill="#0052B4"/>
<path d="M269.132 292.347C268.622 292.602 268.622 293.367 269.132 293.623C269.642 293.878 270.663 293.878 271.173 293.623C271.683 293.367 271.683 292.602 271.173 292.347C270.663 292.092 269.897 292.092 269.132 292.347Z" fill="#0052B4"/>
<path d="M291.837 298.98C291.327 299.235 291.327 300 291.837 300.255C292.347 300.51 293.367 300.51 293.878 300.255C294.388 300 294.388 299.235 293.878 298.98C293.367 298.469 292.347 298.469 291.837 298.98Z" fill="#0052B4"/>
<path d="M286.224 295.663C285.714 295.919 285.714 296.684 286.224 296.939C286.734 297.194 287.755 297.194 288.265 296.939C288.775 296.684 288.775 295.919 288.265 295.663C287.755 295.408 286.734 295.408 286.224 295.663Z" fill="#0052B4"/>
<path d="M280.357 292.347C279.847 292.602 279.847 293.367 280.357 293.623C280.867 293.878 281.888 293.878 282.398 293.623C282.908 293.367 282.908 292.602 282.398 292.347C282.143 292.092 281.122 292.092 280.357 292.347Z" fill="#0052B4"/>
<path d="M274.745 289.286C274.234 289.541 274.234 290.306 274.745 290.561C275.255 290.816 276.275 290.816 276.785 290.561C277.296 290.306 277.296 289.541 276.785 289.286C276.53 288.776 275.51 288.776 274.745 289.286Z" fill="#0052B4"/>
<path d="M297.449 295.663C296.939 295.918 296.939 296.684 297.449 296.939C297.96 297.194 298.98 297.194 299.49 296.939C300 296.684 300 295.918 299.49 295.663C298.98 295.153 297.96 295.153 297.449 295.663Z" fill="#0052B4"/>
<path d="M291.837 292.347C291.327 292.602 291.327 293.367 291.837 293.623C292.347 293.878 293.367 293.878 293.878 293.623C294.388 293.367 294.388 292.602 293.878 292.347C293.367 292.092 292.347 292.092 291.837 292.347Z" fill="#0052B4"/>
<path d="M286.224 289.031C285.714 289.286 285.714 290.051 286.224 290.306C286.734 290.561 287.755 290.561 288.265 290.306C288.775 290.051 288.775 289.286 288.265 289.031C287.755 288.776 286.734 288.776 286.224 289.031Z" fill="#0052B4"/>
<path d="M280.612 285.97C280.101 286.225 280.101 286.99 280.612 287.245C281.122 287.5 282.142 287.5 282.652 287.245C283.163 286.99 283.163 286.225 282.652 285.97C282.142 285.459 281.122 285.459 280.612 285.97Z" fill="#0052B4"/>
<path d="M297.449 289.031C296.939 289.286 296.939 290.051 297.449 290.306C297.96 290.561 298.98 290.561 299.49 290.306C300 290.051 300 289.286 299.49 289.031C298.98 288.776 297.96 288.776 297.449 289.031Z" fill="#0052B4"/>
<path d="M291.837 285.97C291.327 286.225 291.327 286.99 291.837 287.245C292.347 287.5 293.367 287.5 293.878 287.245C294.388 286.99 294.388 286.225 293.878 285.97C293.367 285.459 292.347 285.459 291.837 285.97Z" fill="#0052B4"/>
<path d="M286.224 282.653C285.714 282.908 285.714 283.674 286.224 283.929C286.734 284.184 287.755 284.184 288.265 283.929C288.775 283.674 288.775 282.908 288.265 282.653C287.755 282.398 286.734 282.398 286.224 282.653Z" fill="#0052B4"/>
<path d="M297.449 282.653C296.939 282.908 296.939 283.674 297.449 283.929C297.96 284.184 298.98 284.184 299.49 283.929C300 283.674 300 282.908 299.49 282.653C298.98 282.398 297.96 282.398 297.449 282.653Z" fill="#0052B4"/>
<path d="M291.837 279.337C291.327 279.592 291.327 280.357 291.837 280.612C292.347 280.867 293.367 280.867 293.878 280.612C294.388 280.357 294.388 279.592 293.878 279.337C293.367 279.082 292.347 279.082 291.837 279.337Z" fill="#0052B4"/>
<path d="M178.827 356.888C178.317 357.143 178.317 357.908 178.827 358.163C179.337 358.418 180.357 358.418 180.868 358.163C181.378 357.908 181.378 357.143 180.868 356.888C180.357 356.378 179.337 356.378 178.827 356.888Z" fill="#0052B4"/>
<path d="M173.214 353.572C172.704 353.827 172.704 354.592 173.214 354.847C173.725 355.102 174.745 355.102 175.255 354.847C175.765 354.592 175.765 353.827 175.255 353.572C174.745 353.061 173.725 353.061 173.214 353.572Z" fill="#0052B4"/>
<path d="M167.602 350.255C167.092 350.51 167.092 351.276 167.602 351.531C168.112 351.786 169.132 351.786 169.643 351.531C170.153 351.276 170.153 350.51 169.643 350.255C169.132 350 168.112 350 167.602 350.255Z" fill="#0052B4"/>
<path d="M161.989 346.939C161.479 347.194 161.479 347.959 161.989 348.214C162.499 348.47 163.52 348.47 164.03 348.214C164.54 347.959 164.54 347.194 164.03 346.939C163.52 346.684 162.499 346.684 161.989 346.939Z" fill="#0052B4"/>
<path d="M156.378 343.878C155.868 344.133 155.868 344.898 156.378 345.153C156.888 345.408 157.909 345.408 158.419 345.153C158.929 344.898 158.929 344.133 158.419 343.878C157.909 343.367 156.888 343.367 156.378 343.878Z" fill="#0052B4"/>
<path d="M151.786 341.837C152.632 341.837 153.317 341.494 153.317 341.072C153.317 340.649 152.632 340.306 151.786 340.306C150.941 340.306 150.256 340.649 150.256 341.072C150.256 341.494 150.941 341.837 151.786 341.837Z" fill="#0052B4"/>
<path d="M145.153 337.245C144.643 337.5 144.643 338.265 145.153 338.52C145.663 338.776 146.684 338.776 147.194 338.52C147.704 338.265 147.704 337.5 147.194 337.245C146.684 336.99 145.663 336.99 145.153 337.245Z" fill="#0052B4"/>
<path d="M139.541 334.184C139.03 334.439 139.03 335.204 139.541 335.459C140.051 335.714 141.071 335.714 141.581 335.459C142.092 335.204 142.092 334.439 141.581 334.184C141.071 333.674 140.051 333.674 139.541 334.184Z" fill="#0052B4"/>
<path d="M133.928 330.867C133.418 331.122 133.418 331.888 133.928 332.143C134.438 332.398 135.459 332.398 135.969 332.143C136.479 331.888 136.479 331.122 135.969 330.867C135.459 330.612 134.438 330.612 133.928 330.867Z" fill="#0052B4"/>
<path d="M129.336 329.082C130.181 329.082 130.867 328.739 130.867 328.316C130.867 327.894 130.181 327.551 129.336 327.551C128.491 327.551 127.806 327.894 127.806 328.316C127.806 328.739 128.491 329.082 129.336 329.082Z" fill="#0052B4"/>
<path d="M122.704 324.235C122.194 324.49 122.194 325.255 122.704 325.51C123.215 325.765 124.235 325.765 124.745 325.51C125.255 325.255 125.255 324.49 124.745 324.235C124.235 323.98 123.215 323.98 122.704 324.235Z" fill="#0052B4"/>
<path d="M116.837 321.173C116.327 321.429 116.327 322.194 116.837 322.449C117.348 322.704 118.368 322.704 118.878 322.449C119.388 322.194 119.388 321.429 118.878 321.173C118.623 320.663 117.603 320.663 116.837 321.173Z" fill="#0052B4"/>
<path d="M190.05 356.888C189.54 357.143 189.54 357.908 190.05 358.163C190.561 358.418 191.581 358.418 192.091 358.163C192.601 357.908 192.601 357.143 192.091 356.888C191.581 356.378 190.816 356.378 190.05 356.888Z" fill="#0052B4"/>
<path d="M184.439 353.572C183.929 353.827 183.929 354.592 184.439 354.847C184.95 355.102 185.97 355.102 186.48 354.847C186.99 354.592 186.99 353.827 186.48 353.572C185.97 353.061 185.205 353.061 184.439 353.572Z" fill="#0052B4"/>
<path d="M178.827 350.255C178.317 350.51 178.317 351.276 178.827 351.531C179.337 351.786 180.357 351.786 180.868 351.531C181.378 351.276 181.378 350.51 180.868 350.255C180.357 350 179.337 350 178.827 350.255Z" fill="#0052B4"/>
<path d="M173.214 346.939C172.704 347.194 172.704 347.959 173.214 348.214C173.725 348.47 174.745 348.47 175.255 348.214C175.765 347.959 175.765 347.194 175.255 346.939C174.745 346.684 173.725 346.684 173.214 346.939Z" fill="#0052B4"/>
<path d="M167.602 343.878C167.092 344.133 167.092 344.898 167.602 345.153C168.112 345.408 169.132 345.408 169.643 345.153C170.153 344.898 170.153 344.133 169.643 343.878C169.132 343.367 168.112 343.367 167.602 343.878Z" fill="#0052B4"/>
<path d="M163.01 341.837C163.855 341.837 164.541 341.494 164.541 341.072C164.541 340.649 163.855 340.306 163.01 340.306C162.165 340.306 161.479 340.649 161.479 341.072C161.479 341.494 162.165 341.837 163.01 341.837Z" fill="#0052B4"/>
<path d="M156.378 337.245C155.868 337.5 155.868 338.265 156.378 338.52C156.888 338.776 157.909 338.776 158.419 338.52C158.929 338.265 158.929 337.5 158.419 337.245C157.909 336.99 156.888 336.99 156.378 337.245Z" fill="#0052B4"/>
<path d="M151.786 335.459C152.632 335.459 153.317 335.117 153.317 334.694C153.317 334.271 152.632 333.929 151.786 333.929C150.941 333.929 150.256 334.271 150.256 334.694C150.256 335.117 150.941 335.459 151.786 335.459Z" fill="#0052B4"/>
<path d="M145.153 330.867C144.643 331.122 144.643 331.888 145.153 332.143C145.663 332.398 146.684 332.398 147.194 332.143C147.704 331.888 147.704 331.122 147.194 330.867C146.684 330.612 145.663 330.612 145.153 330.867Z" fill="#0052B4"/>
<path d="M139.541 327.551C139.03 327.806 139.03 328.572 139.541 328.827C140.051 329.082 141.071 329.082 141.581 328.827C142.092 328.572 142.092 327.806 141.581 327.551C141.071 327.296 140.051 327.296 139.541 327.551Z" fill="#0052B4"/>
<path d="M133.928 324.235C133.418 324.49 133.418 325.255 133.928 325.51C134.438 325.765 135.459 325.765 135.969 325.51C136.479 325.255 136.479 324.49 135.969 324.235C135.459 323.98 134.438 323.98 133.928 324.235Z" fill="#0052B4"/>
<path d="M128.317 321.173C127.807 321.429 127.807 322.194 128.317 322.449C128.827 322.704 129.848 322.704 130.358 322.449C130.868 322.194 130.868 321.429 130.358 321.173C129.848 320.663 128.827 320.663 128.317 321.173Z" fill="#0052B4"/>
<path d="M122.704 317.857C122.194 318.112 122.194 318.878 122.704 319.133C123.215 319.388 124.235 319.388 124.745 319.133C125.255 318.878 125.255 318.112 124.745 317.857C124.235 317.602 123.215 317.602 122.704 317.857Z" fill="#0052B4"/>
<path d="M195.663 353.572C195.153 353.827 195.153 354.592 195.663 354.847C196.173 355.102 197.194 355.102 197.704 354.847C198.214 354.592 198.214 353.827 197.704 353.572C197.194 353.061 196.428 353.061 195.663 353.572Z" fill="#0052B4"/>
<path d="M190.05 350.255C189.54 350.51 189.54 351.276 190.05 351.531C190.561 351.786 191.581 351.786 192.091 351.531C192.601 351.276 192.601 350.51 192.091 350.255C191.581 350 190.816 350 190.05 350.255Z" fill="#0052B4"/>
<path d="M184.439 346.939C183.929 347.194 183.929 347.959 184.439 348.214C184.95 348.47 185.97 348.47 186.48 348.214C186.99 347.959 186.99 347.194 186.48 346.939C185.97 346.684 185.205 346.684 184.439 346.939Z" fill="#0052B4"/>
<path d="M179.848 345.153C180.693 345.153 181.378 344.811 181.378 344.388C181.378 343.965 180.693 343.623 179.848 343.623C179.002 343.623 178.317 343.965 178.317 344.388C178.317 344.811 179.002 345.153 179.848 345.153Z" fill="#0052B4"/>
<path d="M173.214 340.561C172.704 340.816 172.704 341.582 173.214 341.837C173.725 342.092 174.745 342.092 175.255 341.837C175.765 341.582 175.765 340.816 175.255 340.561C174.745 340.306 173.725 340.306 173.214 340.561Z" fill="#0052B4"/>
<path d="M167.602 337.245C167.092 337.5 167.092 338.265 167.602 338.52C168.112 338.776 169.132 338.776 169.643 338.52C170.153 338.265 170.153 337.5 169.643 337.245C169.132 336.99 168.112 336.99 167.602 337.245Z" fill="#0052B4"/>
<path d="M161.989 334.184C161.479 334.439 161.479 335.204 161.989 335.459C162.499 335.714 163.52 335.714 164.03 335.459C164.54 335.204 164.54 334.439 164.03 334.184C163.52 333.674 162.499 333.674 161.989 334.184Z" fill="#0052B4"/>
<path d="M156.378 330.867C155.868 331.122 155.868 331.888 156.378 332.143C156.888 332.398 157.909 332.398 158.419 332.143C158.929 331.888 158.929 331.122 158.419 330.867C157.909 330.612 156.888 330.612 156.378 330.867Z" fill="#0052B4"/>
<path d="M150.766 327.551C150.255 327.806 150.255 328.572 150.766 328.827C151.276 329.082 152.296 329.082 152.806 328.827C153.317 328.572 153.317 327.806 152.806 327.551C152.296 327.296 151.276 327.296 150.766 327.551Z" fill="#0052B4"/>
<path d="M145.153 324.235C144.643 324.49 144.643 325.255 145.153 325.51C145.663 325.765 146.684 325.765 147.194 325.51C147.704 325.255 147.704 324.49 147.194 324.235C146.684 323.98 145.663 323.98 145.153 324.235Z" fill="#0052B4"/>
<path d="M139.541 321.173C139.03 321.429 139.03 322.194 139.541 322.449C140.051 322.704 141.071 322.704 141.581 322.449C142.092 322.194 142.092 321.429 141.581 321.173C141.071 320.663 140.051 320.663 139.541 321.173Z" fill="#0052B4"/>
<path d="M133.928 317.857C133.418 318.112 133.418 318.878 133.928 319.133C134.438 319.388 135.459 319.388 135.969 319.133C136.479 318.878 136.479 318.112 135.969 317.857C135.459 317.602 134.438 317.602 133.928 317.857Z" fill="#0052B4"/>
<path d="M128.317 314.541C127.807 314.796 127.807 315.561 128.317 315.817C128.827 316.072 129.848 316.072 130.358 315.817C130.868 315.561 130.868 314.796 130.358 314.541C129.848 314.286 128.827 314.286 128.317 314.541Z" fill="#0052B4"/>
<path d="M201.53 350.255C201.02 350.51 201.02 351.276 201.53 351.531C202.04 351.786 203.061 351.786 203.571 351.531C204.081 351.276 204.081 350.51 203.571 350.255C203.061 350 202.04 350 201.53 350.255Z" fill="#0052B4"/>
<path d="M195.919 346.939C195.409 347.194 195.409 347.959 195.919 348.214C196.429 348.47 197.45 348.47 197.96 348.214C198.47 347.959 198.47 347.194 197.96 346.939C197.45 346.684 196.429 346.684 195.919 346.939Z" fill="#0052B4"/>
<path d="M190.05 343.878C189.54 344.133 189.54 344.898 190.05 345.153C190.561 345.408 191.581 345.408 192.091 345.153C192.601 344.898 192.601 344.133 192.091 343.878C191.836 343.367 190.816 343.367 190.05 343.878Z" fill="#0052B4"/>
<path d="M184.439 340.561C183.929 340.816 183.929 341.582 184.439 341.837C184.95 342.092 185.97 342.092 186.48 341.837C186.99 341.582 186.99 340.816 186.48 340.561C186.225 340.306 185.205 340.306 184.439 340.561Z" fill="#0052B4"/>
<path d="M207.143 346.939C206.632 347.194 206.632 347.959 207.143 348.214C207.653 348.47 208.673 348.47 209.183 348.214C209.694 347.959 209.694 347.194 209.183 346.939C208.673 346.684 207.653 346.684 207.143 346.939Z" fill="#0052B4"/>
<path d="M201.53 343.878C201.02 344.133 201.02 344.898 201.53 345.153C202.04 345.408 203.061 345.408 203.571 345.153C204.081 344.898 204.081 344.133 203.571 343.878C203.061 343.367 202.04 343.367 201.53 343.878Z" fill="#0052B4"/>
<path d="M196.938 341.837C197.784 341.837 198.469 341.494 198.469 341.072C198.469 340.649 197.784 340.306 196.938 340.306C196.093 340.306 195.408 340.649 195.408 341.072C195.408 341.494 196.093 341.837 196.938 341.837Z" fill="#0052B4"/>
<path d="M190.05 337.245C189.54 337.5 189.54 338.265 190.05 338.52C190.561 338.776 191.581 338.776 192.091 338.52C192.601 338.265 192.601 337.5 192.091 337.245C191.836 336.99 190.816 336.99 190.05 337.245Z" fill="#0052B4"/>
<path d="M213.776 345.153C214.621 345.153 215.306 344.811 215.306 344.388C215.306 343.965 214.621 343.623 213.776 343.623C212.931 343.623 212.245 343.965 212.245 344.388C212.245 344.811 212.931 345.153 213.776 345.153Z" fill="#0052B4"/>
<path d="M208.163 341.837C209.009 341.837 209.694 341.494 209.694 341.072C209.694 340.649 209.009 340.306 208.163 340.306C207.318 340.306 206.633 340.649 206.633 341.072C206.633 341.494 207.318 341.837 208.163 341.837Z" fill="#0052B4"/>
<path d="M201.53 337.245C201.02 337.5 201.02 338.265 201.53 338.52C202.04 338.776 203.061 338.776 203.571 338.52C204.081 338.265 204.081 337.5 203.571 337.245C203.061 336.99 202.04 336.99 201.53 337.245Z" fill="#0052B4"/>
<path d="M196.938 335.459C197.784 335.459 198.469 335.117 198.469 334.694C198.469 334.271 197.784 333.929 196.938 333.929C196.093 333.929 195.408 334.271 195.408 334.694C195.408 335.117 196.093 335.459 196.938 335.459Z" fill="#0052B4"/>
<path d="M218.368 340.561C217.857 340.816 217.857 341.582 218.368 341.837C218.878 342.092 219.898 342.092 220.408 341.837C220.919 341.582 220.919 340.816 220.408 340.561C219.898 340.306 218.878 340.306 218.368 340.561Z" fill="#0052B4"/>
<path d="M212.755 337.245C212.245 337.5 212.245 338.265 212.755 338.52C213.265 338.776 214.286 338.776 214.796 338.52C215.306 338.265 215.306 337.5 214.796 337.245C214.286 336.99 213.265 336.99 212.755 337.245Z" fill="#0052B4"/>
<path d="M208.163 335.459C209.009 335.459 209.694 335.117 209.694 334.694C209.694 334.271 209.009 333.929 208.163 333.929C207.318 333.929 206.633 334.271 206.633 334.694C206.633 335.117 207.318 335.459 208.163 335.459Z" fill="#0052B4"/>
<path d="M202.551 332.143C203.396 332.143 204.081 331.8 204.081 331.378C204.081 330.955 203.396 330.612 202.551 330.612C201.705 330.612 201.02 330.955 201.02 331.378C201.02 331.8 201.705 332.143 202.551 332.143Z" fill="#0052B4"/>
<path d="M113.52 317.857C113.01 317.602 111.99 317.602 111.479 317.857C110.969 318.112 110.969 318.878 111.479 319.133C111.99 319.388 113.01 319.388 113.52 319.133C114.03 318.878 114.03 318.367 113.52 317.857Z" fill="#0052B4"/>
<path d="M105.612 314.796C105.102 315.051 105.102 315.816 105.612 316.071C106.122 316.327 107.143 316.327 107.653 316.071C108.163 315.816 108.163 315.051 107.653 314.796C107.143 314.286 106.378 314.286 105.612 314.796Z" fill="#0052B4"/>
<path d="M101.02 312.755C101.866 312.755 102.551 312.413 102.551 311.99C102.551 311.567 101.866 311.225 101.02 311.225C100.175 311.225 99.4898 311.567 99.4898 311.99C99.4898 312.413 100.175 312.755 101.02 312.755Z" fill="#0052B4"/>
<path d="M94.3872 308.163C93.877 308.419 93.877 309.184 94.3872 309.439C94.8974 309.694 95.9178 309.694 96.428 309.439C96.9382 309.184 96.9382 308.419 96.428 308.163C95.9178 307.908 95.1525 307.908 94.3872 308.163Z" fill="#0052B4"/>
<path d="M88.7761 304.847C88.2659 305.102 88.2659 305.867 88.7761 306.123C89.2864 306.378 90.3068 306.378 90.817 306.123C91.3272 305.867 91.3272 305.102 90.817 304.847C90.3068 304.592 89.2864 304.592 88.7761 304.847Z" fill="#0052B4"/>
<path d="M83.1636 301.786C82.6534 302.041 82.6534 302.806 83.1636 303.061C83.6738 303.316 84.6942 303.316 85.2044 303.061C85.7146 302.806 85.7146 302.041 85.2044 301.786C84.6942 301.276 83.6738 301.276 83.1636 301.786Z" fill="#0052B4"/>
<path d="M77.551 298.469C77.0408 298.725 77.0408 299.49 77.551 299.745C78.0613 300 79.0817 300 79.5919 299.745C80.1021 299.49 80.1021 298.725 79.5919 298.469C79.0817 298.214 78.0613 298.214 77.551 298.469Z" fill="#0052B4"/>
<path d="M71.9385 295.153C71.4283 295.408 71.4283 296.174 71.9385 296.429C72.4487 296.684 73.4691 296.684 73.9793 296.429C74.4895 296.174 74.4895 295.408 73.9793 295.153C73.4691 294.898 72.4487 294.898 71.9385 295.153Z" fill="#0052B4"/>
<path d="M119.133 314.796C118.622 314.541 117.602 314.541 117.092 314.796C116.582 315.051 116.582 315.816 117.092 316.072C117.602 316.327 118.622 316.327 119.133 316.072C119.643 315.561 119.643 315.051 119.133 314.796Z" fill="#0052B4"/>
<path d="M111.225 311.48C110.715 311.735 110.715 312.5 111.225 312.755C111.735 313.01 112.755 313.01 113.266 312.755C113.776 312.5 113.776 311.735 113.266 311.48C112.755 311.225 111.99 311.225 111.225 311.48Z" fill="#0052B4"/>
<path d="M105.612 308.163C105.102 308.419 105.102 309.184 105.612 309.439C106.122 309.694 107.143 309.694 107.653 309.439C108.163 309.184 108.163 308.419 107.653 308.163C107.143 307.908 106.378 307.908 105.612 308.163Z" fill="#0052B4"/>
<path d="M99.9997 304.847C99.4895 305.102 99.4895 305.867 99.9997 306.123C100.51 306.378 101.53 306.378 102.041 306.123C102.551 305.867 102.551 305.102 102.041 304.847C101.53 304.592 100.765 304.592 99.9997 304.847Z" fill="#0052B4"/>
<path d="M94.3872 301.786C93.877 302.041 93.877 302.806 94.3872 303.061C94.8974 303.316 95.9178 303.316 96.428 303.061C96.9382 302.806 96.9382 302.041 96.428 301.786C95.9178 301.276 95.1525 301.276 94.3872 301.786Z" fill="#0052B4"/>
<path d="M88.7761 298.469C88.2659 298.725 88.2659 299.49 88.7761 299.745C89.2864 300 90.3068 300 90.817 299.745C91.3272 299.49 91.3272 298.725 90.817 298.469C90.3068 298.214 89.2864 298.214 88.7761 298.469Z" fill="#0052B4"/>
<path d="M83.1636 295.153C82.6534 295.408 82.6534 296.174 83.1636 296.429C83.6738 296.684 84.6942 296.684 85.2044 296.429C85.7146 296.174 85.7146 295.408 85.2044 295.153C84.6942 294.898 83.6738 294.898 83.1636 295.153Z" fill="#0052B4"/>
<path d="M78.5717 293.367C79.4171 293.367 80.1024 293.025 80.1024 292.602C80.1024 292.179 79.4171 291.837 78.5717 291.837C77.7264 291.837 77.0411 292.179 77.0411 292.602C77.0411 293.025 77.7264 293.367 78.5717 293.367Z" fill="#0052B4"/>
<path d="M71.9385 288.776C71.4283 289.031 71.4283 289.796 71.9385 290.051C72.4487 290.306 73.4691 290.306 73.9793 290.051C74.4895 289.796 74.4895 289.031 73.9793 288.776C73.4691 288.52 72.4487 288.52 71.9385 288.776Z" fill="#0052B4"/>
<path d="M124.745 311.48C124.235 311.225 123.215 311.225 122.704 311.48C122.194 311.735 122.194 312.5 122.704 312.755C123.215 313.01 124.235 313.01 124.745 312.755C125.255 312.245 125.255 311.735 124.745 311.48Z" fill="#0052B4"/>
<path d="M116.837 308.163C116.327 308.419 116.327 309.184 116.837 309.439C117.348 309.694 118.368 309.694 118.878 309.439C119.388 309.184 119.388 308.419 118.878 308.163C118.623 307.908 117.603 307.908 116.837 308.163Z" fill="#0052B4"/>
<path d="M111.225 304.847C110.715 305.102 110.715 305.867 111.225 306.123C111.735 306.378 112.755 306.378 113.266 306.123C113.776 305.867 113.776 305.102 113.266 304.847C112.755 304.592 111.99 304.592 111.225 304.847Z" fill="#0052B4"/>
<path d="M105.612 301.786C105.102 302.041 105.102 302.806 105.612 303.061C106.122 303.316 107.143 303.316 107.653 303.061C108.163 302.806 108.163 302.041 107.653 301.786C107.143 301.276 106.378 301.276 105.612 301.786Z" fill="#0052B4"/>
<path d="M99.9997 298.469C99.4895 298.725 99.4895 299.49 99.9997 299.745C100.51 300 101.53 300 102.041 299.745C102.551 299.49 102.551 298.725 102.041 298.469C101.53 298.214 100.765 298.214 99.9997 298.469Z" fill="#0052B4"/>
<path d="M94.3872 295.153C93.877 295.408 93.877 296.174 94.3872 296.429C94.8974 296.684 95.9178 296.684 96.428 296.429C96.9382 296.174 96.9382 295.408 96.428 295.153C95.9178 294.898 95.1525 294.898 94.3872 295.153Z" fill="#0052B4"/>
<path d="M88.7761 292.092C88.2659 292.347 88.2659 293.112 88.7761 293.368C89.2864 293.623 90.3068 293.623 90.817 293.368C91.3272 293.112 91.3272 292.347 90.817 292.092C90.3068 291.582 89.2864 291.582 88.7761 292.092Z" fill="#0052B4"/>
<path d="M83.1636 288.776C82.6534 289.031 82.6534 289.796 83.1636 290.051C83.6738 290.306 84.6942 290.306 85.2044 290.051C85.7146 289.796 85.7146 289.031 85.2044 288.776C84.6942 288.52 83.6738 288.52 83.1636 288.776Z" fill="#0052B4"/>
<path d="M77.551 285.459C77.0408 285.714 77.0408 286.48 77.551 286.735C78.0613 286.99 79.0817 286.99 79.5919 286.735C80.1021 286.48 80.1021 285.714 79.5919 285.459C79.0817 285.204 78.0613 285.204 77.551 285.459Z" fill="#0052B4"/>
<path d="M72.9592 283.674C73.8045 283.674 74.4898 283.331 74.4898 282.908C74.4898 282.486 73.8045 282.143 72.9592 282.143C72.1139 282.143 71.4286 282.486 71.4286 282.908C71.4286 283.331 72.1139 283.674 72.9592 283.674Z" fill="#0052B4"/>
</g>
<defs>
<clipPath id="clip0_1_6411">
<rect width="300" height="358.163" fill="white"/>
</clipPath>
</defs>
</svg>
