<svg width="24" height="26" viewBox="0 0 24 26" fill="none" xmlns="http://www.w3.org/2000/svg">
<path d="M16.0821 16.7779C15.3607 15.0183 14.9999 13.1638 14.9999 11.2143C14.9999 9.98668 14.643 9.01207 13.9289 8.29026C13.2143 7.56849 12.2321 7.13309 10.9821 6.98435C11.0415 6.85051 11.0712 6.71287 11.0712 6.57148C11.0712 6.27384 10.9671 6.02065 10.7588 5.81249C10.5506 5.6041 10.2976 5.5 9.99993 5.5C9.70245 5.5 9.44942 5.6041 9.24102 5.81249C9.03267 6.02081 8.92857 6.27384 8.92857 6.57148C8.92857 6.71287 8.95828 6.85039 9.01789 6.98435C7.76789 7.13325 6.7857 7.56845 6.07143 8.29026C5.3572 9.01203 5.00011 9.98664 5.00011 11.2143C5.00011 13.1638 4.63934 15.0183 3.91753 16.7779C3.19576 18.5376 2.12811 20.0165 0.714355 21.2144C0.714355 21.6012 0.855747 21.9361 1.13849 22.2188C1.42119 22.5014 1.75597 22.643 2.143 22.643H7.14299C7.14299 23.4317 7.4219 24.1051 7.97996 24.663C8.53806 25.2209 9.21147 25.5 10.0001 25.5C10.7888 25.5 11.4622 25.2209 12.0201 24.663C12.578 24.1051 12.8571 23.4317 12.8571 22.643H17.8571C18.244 22.643 18.5791 22.5017 18.8615 22.2188C19.1443 21.9361 19.2857 21.6012 19.2857 21.2144C17.8722 20.0165 16.8044 18.5376 16.0821 16.7779ZM10.0001 24.607C9.45696 24.607 8.99362 24.4157 8.61049 24.0325C8.22736 23.6492 8.03574 23.1859 8.03574 22.6427C8.03574 22.5236 8.09531 22.4641 8.21431 22.4641C8.33338 22.4641 8.39295 22.5236 8.39295 22.6427C8.39295 23.0817 8.55099 23.4593 8.8672 23.7756C9.18348 24.092 9.56102 24.25 10 24.25C10.1191 24.25 10.1789 24.3098 10.1789 24.4286C10.179 24.5477 10.1192 24.607 10.0001 24.607ZM2.75685 21.2144C3.97714 19.8676 4.89409 18.3368 5.5079 16.6218C6.1217 14.9068 6.42876 13.1043 6.42876 11.2145C6.42876 9.30971 7.61915 8.35738 10.0001 8.35738C12.381 8.35738 13.5715 9.30971 13.5715 11.2145C13.5715 13.1043 13.8784 14.9068 14.4922 16.6218C15.1058 18.3369 16.0233 19.8676 17.2434 21.2144H2.75685Z" fill="black"/>
<circle cx="15.5" cy="9" r="8" fill="#F12727" stroke="white"/>
<path d="M16.5596 12.5H15.6514V6.47949L13.8301 7.14844V6.32812L16.418 5.35645H16.5596V12.5Z" fill="white"/>
</svg>
