<svg width="11" height="13" viewBox="0 0 11 13" fill="none" xmlns="http://www.w3.org/2000/svg">
<path d="M5.24181 0.26001C2.32137 0.26001 0 2.58138 0 5.50182C0 6.9246 0.524181 8.27249 1.57254 9.24597C1.64743 9.32085 4.64275 12.0166 4.71763 12.0915C5.01716 12.3162 5.46646 12.3162 5.69111 12.0915C5.76599 12.0166 8.83619 9.32085 8.83619 9.24597C9.88455 8.27249 10.4087 6.9246 10.4087 5.50182C10.4836 2.58138 8.16225 0.26001 5.24181 0.26001ZM5.24181 6.99948C4.4181 6.99948 3.74415 6.32553 3.74415 5.50182C3.74415 4.67811 4.4181 4.00416 5.24181 4.00416C6.06552 4.00416 6.73947 4.67811 6.73947 5.50182C6.73947 6.32553 6.06552 6.99948 5.24181 6.99948Z" fill="#9DA8B6"/>
</svg>
