<svg width="36" height="35" viewBox="0 0 36 35" fill="none" xmlns="http://www.w3.org/2000/svg">
<circle cx="17.8333" cy="17.5" r="17.5" fill="#FF5151" fill-opacity="0.5"/>
<path d="M19.5279 16H22.5506C22.5393 13.7159 20.7779 12.2045 17.9597 12.2045C15.1927 12.2045 13.2381 13.6932 13.2552 15.9091C13.2495 17.7273 14.5109 18.7386 16.5734 19.1818L17.7325 19.4318C19.0279 19.7159 19.4711 20.0398 19.4825 20.5682C19.4711 21.142 18.9484 21.5455 17.937 21.5455C16.7268 21.5455 16.0109 20.9773 15.9597 19.9091H12.9597C12.9711 22.8295 14.9484 24.1364 17.9825 24.1364C20.9313 24.1364 22.6984 22.8636 22.7097 20.5682C22.6984 18.7955 21.6416 17.5511 19.0734 17L18.1188 16.7955C17.0166 16.5625 16.5222 16.2386 16.5506 15.6818C16.5563 15.1705 16.9825 14.7955 17.9597 14.7955C18.9825 14.7955 19.4654 15.2443 19.5279 16Z" fill="#FF5151"/>
</svg>
