<svg width="35" height="25" viewBox="0 0 35 25" fill="none" xmlns="http://www.w3.org/2000/svg">
<circle cx="17.5" cy="12.5" r="12.5" fill="#FF5151" fill-opacity="0.5"/>
<path d="M18.8769 10.5H21.3328C21.3236 8.64418 19.8925 7.41619 17.6027 7.41619C15.3545 7.41619 13.7664 8.62571 13.7803 10.4261C13.7757 11.9034 14.8005 12.7251 16.4763 13.0852L17.4181 13.2884C18.4706 13.5192 18.8307 13.7823 18.8399 14.2116C18.8307 14.6779 18.406 15.0057 17.5843 15.0057C16.6009 15.0057 16.0193 14.544 15.9777 13.6761H13.5402C13.5494 16.049 15.156 17.1108 17.6212 17.1108C20.0171 17.1108 21.4529 16.0767 21.4621 14.2116C21.4529 12.7713 20.5942 11.7603 18.5075 11.3125L17.732 11.1463C16.8364 10.957 16.4347 10.6939 16.4578 10.2415C16.4624 9.82599 16.8087 9.52131 17.6027 9.52131C18.4337 9.52131 18.8261 9.88601 18.8769 10.5Z" fill="#FF5151"/>
</svg>
