<svg width="7155" height="1484" viewBox="0 0 7155 1484" fill="none" xmlns="http://www.w3.org/2000/svg">
<path d="M0 1266.9L167.439 1076.82C188.61 1128.92 222.611 1170.09 269.442 1200.32C316.274 1229.91 368.879 1244.71 427.258 1244.71C497.827 1244.71 553.64 1227.98 594.697 1194.53C635.755 1161.08 656.284 1116.06 656.284 1059.45C656.284 992.55 587.961 925.972 451.316 859.716C407.05 838.489 372.087 821.121 346.426 807.612C223.252 743.286 137.929 680.569 90.4556 619.459C42.9824 557.706 19.2459 484.375 19.2459 399.464C19.2459 283.034 65.1152 187.51 156.854 112.892C249.234 37.6307 368.879 0 515.789 0C601.113 0 674.568 15.1166 736.155 45.3498C798.383 74.9398 853.234 121.576 900.707 185.259L722.682 356.044C701.512 314.876 673.285 284.321 638.001 264.38C603.358 243.795 561.338 233.503 511.94 233.503C452.278 233.503 404.163 248.62 367.596 278.853C331.029 308.443 312.745 347.039 312.745 394.64C312.745 469.258 385.238 537.443 530.224 599.196C559.093 611.418 581.225 621.067 596.622 628.143C715.946 682.82 804.157 744.573 861.253 813.402C918.99 882.231 947.859 960.708 947.859 1048.83C947.859 1181.35 902.631 1287.16 812.176 1366.28C722.362 1444.76 601.434 1484 449.391 1484C341.614 1484 249.234 1465.35 172.251 1428.04C95.2671 1390.73 37.8502 1337.02 0 1266.9Z" fill="black"/>
<path d="M1642.48 1446.37V801.823L1165.18 33.7711H1518.35L1727.16 420.692C1737.43 439.99 1748.01 464.433 1758.92 494.023C1769.82 523.613 1781.05 557.706 1792.6 596.302C1801.58 563.495 1811.52 532.619 1822.43 503.672C1833.98 474.726 1846.81 446.422 1860.92 418.762L2067.82 33.7711H2419.05L1943.68 801.823V1446.37H1642.48Z" fill="black"/>
<path d="M4076.93 742.965C4076.93 843.957 4058.01 939.481 4020.16 1029.54C3982.95 1119.59 3929.06 1198.71 3858.49 1266.9C3785.36 1337.02 3702.92 1390.73 3611.18 1428.04C3519.44 1465.35 3424.5 1484 3326.34 1484C3240.38 1484 3156.02 1469.53 3073.26 1440.58C2991.14 1410.99 2915.76 1368.86 2847.12 1314.18C2758.59 1243.42 2690.59 1158.83 2643.11 1060.41C2596.28 961.995 2572.87 856.179 2572.87 742.965C2572.87 641.33 2591.47 546.127 2628.68 457.358C2665.89 367.945 2720.42 288.502 2792.27 219.03C2862.84 150.201 2944.63 96.8106 3037.65 58.8583C3131.32 20.9059 3227.55 1.92978 3326.34 1.92978C3424.5 1.92978 3519.76 20.9059 3612.14 58.8583C3705.16 96.8106 3787.28 150.201 3858.49 219.03C3929.7 288.502 3983.91 367.945 4021.12 457.358C4058.33 546.771 4076.93 641.973 4076.93 742.965ZM3326.34 1214.8C3454.01 1214.8 3559.22 1170.09 3641.97 1080.68C3725.37 990.62 3767.07 878.049 3767.07 742.965C3767.07 609.167 3725.05 496.596 3641.01 405.254C3556.97 313.911 3452.08 268.239 3326.34 268.239C3198.68 268.239 3092.82 313.911 3008.78 405.254C2924.74 495.953 2882.72 608.524 2882.72 742.965C2882.72 879.336 2924.1 992.228 3006.86 1081.64C3089.62 1170.41 3196.11 1214.8 3326.34 1214.8Z" fill="black"/>
<path d="M5184.38 908.926L5026.56 452.533C5022.07 439.025 5016.3 415.867 5009.24 383.061C5002.18 350.255 4994.8 310.051 4987.11 262.45C4978.77 308.121 4970.75 349.29 4963.05 385.956C4955.35 421.978 4949.58 446.101 4945.73 458.323L4793.68 908.926H5184.38ZM4287.52 1446.37L4823.52 33.7711H5168.02L5711.71 1446.37H5369.14L5254.62 1146.29H4709L4610.85 1446.37H4287.52Z" fill="black"/>
<path d="M6017.57 1446.37V33.7711H6318.77V673.493L6788.37 33.7711H7136.72L6632.47 677.352L7155 1446.37H6792.21L6318.77 707.264V1446.37H6017.57Z" fill="black"/>
</svg>
